<?xml version="1.0" encoding="utf-8"?>
<!-- Generator: Adobe Illustrator 15.0.0, SVG Export Plug-In . SVG Version: 6.00 Build 0)  -->
<!DOCTYPE svg PUBLIC "-//W3C//DTD SVG 1.1//EN" "http://www.w3.org/Graphics/SVG/1.1/DTD/svg11.dtd">
<svg version="1.1" id="طبقة_1" xmlns="http://www.w3.org/2000/svg" xmlns:xlink="http://www.w3.org/1999/xlink" x="0px" y="0px"
	 width="253.479px" height="66.84px" viewBox="0 0 253.479 66.84" enable-background="new 0 0 253.479 66.84" xml:space="preserve">
<path fill="#9E4D04" d="M113.768,3.435c0.149-0.831,0.886-1.459,1.685-1.515c0.514-0.785,1.449-1.292,2.419-1.132
	c0.478-0.504,1.214-0.766,1.973-0.541c0.94-0.524,2.283-0.192,2.769,0.811c2.148-0.5,4.063,0.932,3.806,2.963
	c0.211-0.031,0.436-0.031,0.646,0c-0.258-2.034,1.659-3.462,3.806-2.963c0.483-1.003,1.827-1.335,2.768-0.81
	c0.758-0.226,1.496,0.036,1.973,0.541c0.97-0.16,1.905,0.347,2.42,1.132c0.798,0.055,1.533,0.684,1.685,1.515
	c1.301-0.174,2.664,0.446,3.734,1.303c1.034,0.83,0.229,2.515-1.068,2.225c-0.36-0.081-1.248-0.204-1.456,0.248
	c-0.112,0.241-0.022,0.56,0.103,0.778c0.258,0.449,0.74,0.715,1.229,0.837c1.028,0.255,2.082,0.363,3.104,0.619
	c2.53,0.633,4.339,2.362,5.751,4.475c1.033-2.665,4.374-2.803,6.445-1.231c0.201-0.648,0.521-1.262,0.936-1.809
	c-0.145-0.688,0.023-1.501,0.365-2.091c-0.196-0.242-0.342-0.541-0.408-0.896c-0.278-1.467,0.882-2.853,2.362-2.869
	c0.921-0.01,1.813,0.477,2.566,1.102c0.835-0.585,1.864-0.489,2.67-0.007c0.871-0.703,2.151-0.828,3.126-0.25
	c1.125-1.262,2.613-2.476,4.154-2.569c1.844-0.111,3.377,1.537,3.106,3.371c-0.186,1.261-1.215,1.99-2.285,2.108l0.115,0.526
	c0.652,0.458,1.134,1.098,1.392,1.858c0.649,1.918-0.054,3.815-1.955,4.615c-0.84,0.353-1.753,0.478-2.572,0.182
	c0.531,0.686,1.2,1.333,2.108,1.409c2.349,0.196,5.313-3.002,6.938-4.486c1.637-1.494,3.41-2.883,5.615-3.388
	c2.227-0.511,4.651-0.014,6.256,1.683c0.296,0.344,0.649,0.81,0.861,1.216c1.605-1.326,4.254-2.058,5.795-0.255
	c0.405-0.661,1.328-0.783,1.907-0.282c0.91,0.786,1.893,1.524,2.931,2.215c-1.615-2.54-1.732-5.573-0.212-8.271
	c2.609-4.628,9.48-3.95,10.947,0.624c0.418,1.307,0.271,2.767-0.346,3.942c1.777-0.148,3.515,0.976,4.435,2.478
	c1.377-0.554,3.141-0.088,3.973,1.192c0.164-2.088,2.283-3.47,4.221-2.994c0.269-0.376,0.65-0.629,1.094-0.745
	c0.048-0.064,0.099-0.126,0.15-0.184c0.447-0.483,1.029-0.639,1.578-0.52c0.518-0.238,1.135-0.24,1.68-0.057
	c0.547,0.184,0.998,0.549,1.256,1.023c0.533,0.271,0.886,0.795,0.966,1.35c0.444,0.381,0.723,0.92,0.737,1.516
	c2.424,0.76,3.354,3.527,2.049,5.31c0.154,0.169,0.279,0.371,0.371,0.597c0.789-0.149,1.502-0.314,2.299-0.221
	c1.49,0.174,2.482,0.967,3.197,2.239c0.201,0.361,0.398,0.74,0.613,1.104c0.813-0.435,1.82-0.481,2.639-0.039
	c1.795,0.968,1.715,3.531-0.02,4.455c0.91-0.198,1.85,0.378,2.092,1.282c0.041,0.153,0.082,0.306,0.123,0.458
	c0.473-0.062,0.99,0.102,1.451,0.193c1.021,0.204,1.662,1.279,1.354,2.271c0.515-0.096,1.035,0.036,1.443,0.366l1.197,0.968
	c0.868,0.703,0.868,2.066,0,2.77l-1.195,0.969c-0.41,0.33-0.932,0.461-1.445,0.365c0.308,0.991-0.334,2.067-1.354,2.271
	c-0.463,0.092-0.979,0.254-1.451,0.193c-0.185,0.688-0.318,1.215-1.023,1.578c-0.391,0.203-0.828,0.254-1.248,0.147
	c1.779,0.892,1.898,3.502,0.078,4.483c-0.819,0.443-1.828,0.396-2.641-0.037c-0.215,0.363-0.412,0.742-0.615,1.104
	c-1.029,1.836-2.625,2.489-4.582,2.193c-0.281-0.043-0.598-0.116-0.91-0.176c-0.088,0.226-0.213,0.431-0.366,0.604
	c1.297,1.785,0.364,4.544-2.056,5.305c-0.016,0.596-0.293,1.135-0.738,1.516c-0.079,0.555-0.432,1.078-0.963,1.35
	c-0.014,0.025-0.026,0.051-0.041,0.074c-0.586,0.979-1.938,1.324-2.896,0.896c-0.346,0.073-0.713,0.037-1.072-0.143
	c-0.26-0.13-0.483-0.328-0.654-0.564c-0.444-0.115-0.825-0.367-1.096-0.744c-1.719,0.443-3.794-0.68-4.17-2.613
	c-0.805,1.342-2.615,1.843-4.022,1.275c-0.92,1.502-2.656,2.625-4.435,2.479c1.082,2.059,0.617,4.617-1.104,6.189
	c-2.748,2.512-7.487,1.941-9.499-1.625c-1.647-2.92-1.373-6.234,0.644-8.892c0.074-0.099,0.151-0.192,0.229-0.288
	c-1.285,0.811-2.489,1.692-3.592,2.645c-0.498,0.429-1.233,0.408-1.719-0.049c-0.971,1.403-2.837,1.598-4.348,0.979
	c-0.605-0.248-1.148-0.584-1.637-0.986c-0.198,0.383-0.564,0.9-0.862,1.217c-1.604,1.694-4.028,2.192-6.255,1.682
	c-3.603-0.826-5.84-3.879-8.564-6.059c-1.013-0.811-2.62-1.931-3.988-1.814c-0.908,0.074-1.577,0.723-2.108,1.408
	c0.818-0.297,1.732-0.172,2.572,0.182c1.901,0.801,2.604,2.697,1.954,4.615c-0.257,0.76-0.737,1.4-1.391,1.857l-0.115,0.526
	c1.07,0.118,2.101,0.847,2.285,2.106c0.271,1.836-1.264,3.482-3.106,3.371c-1.541-0.094-3.03-1.307-4.154-2.567
	c-0.975,0.575-2.255,0.45-3.126-0.251c-0.806,0.482-1.834,0.576-2.67-0.008c-0.755,0.625-1.646,1.111-2.566,1.103
	c-1.48-0.017-2.642-1.401-2.362-2.868c0.066-0.355,0.212-0.654,0.408-0.896c-0.343-0.592-0.51-1.402-0.366-2.092
	c-0.414-0.547-0.732-1.16-0.935-1.81c-2.071,1.571-5.412,1.435-6.445-1.229c-1.413,2.111-3.221,3.842-5.751,4.475
	c-1.021,0.256-2.075,0.363-3.104,0.619c-0.488,0.121-0.972,0.387-1.229,0.836c-0.125,0.219-0.215,0.537-0.103,0.779
	c0.208,0.451,1.095,0.326,1.456,0.246c1.299-0.289,2.104,1.396,1.066,2.227c-1.068,0.855-2.433,1.477-3.732,1.303
	c-0.15,0.83-0.887,1.459-1.685,1.514c-0.515,0.785-1.45,1.293-2.42,1.133c-0.477,0.505-1.215,0.767-1.973,0.541
	c-0.939,0.523-2.282,0.193-2.768-0.811c-2.146,0.5-4.063-0.93-3.806-2.963c-0.211,0.031-0.436,0.031-0.646,0
	c0.257,2.031-1.657,3.463-3.806,2.963c-0.485,1.004-1.829,1.336-2.769,0.811c-0.758,0.226-1.495-0.036-1.973-0.541
	c-0.97,0.16-1.905-0.348-2.418-1.133c-0.799-0.055-1.535-0.684-1.686-1.514c-1.301,0.174-2.665-0.445-3.734-1.303
	c-1.036-0.83-0.229-2.516,1.067-2.227c0.361,0.08,1.248,0.205,1.457-0.246c0.111-0.242,0.022-0.562-0.102-0.779
	c-0.258-0.449-0.74-0.715-1.229-0.836c-1.029-0.256-2.082-0.363-3.104-0.619c-2.53-0.633-4.338-2.361-5.75-4.475
	c-1.034,2.664-4.375,2.802-6.446,1.229c-0.201,0.647-0.521,1.263-0.936,1.81c0.145,0.688-0.024,1.502-0.366,2.092
	c0.196,0.242,0.342,0.541,0.41,0.896c0.278,1.467-0.882,2.854-2.363,2.868c-0.921,0.011-1.812-0.478-2.567-1.103
	c-0.835,0.584-1.864,0.488-2.669,0.008c-0.871,0.701-2.15,0.826-3.126,0.251c-1.124,1.262-2.614,2.476-4.154,2.567
	c-1.843,0.111-3.377-1.535-3.106-3.371c0.186-1.26,1.215-1.988,2.285-2.106l-0.115-0.526c-0.651-0.457-1.133-1.099-1.391-1.857
	c-0.649-1.918,0.054-3.814,1.956-4.615c0.839-0.354,1.753-0.479,2.571-0.182c-0.53-0.687-1.2-1.334-2.108-1.408
	c-2.35-0.196-5.313,3.001-6.938,4.484c-1.637,1.494-3.41,2.883-5.615,3.389c-2.227,0.512-4.651,0.014-6.256-1.682
	c-0.296-0.346-0.649-0.811-0.861-1.217c-1.381,1.139-3.492,1.879-5.141,0.823c-0.343-0.22-0.625-0.498-0.844-0.815
	c-0.482,0.455-1.217,0.48-1.72,0.047c-1.102-0.949-2.306-1.832-3.591-2.644c0.079,0.097,0.155,0.19,0.229,0.289
	c2.017,2.656,2.292,5.972,0.645,8.892c-2.609,4.629-9.481,3.949-10.947-0.623c-0.419-1.308-0.272-2.768,0.345-3.941
	c-1.777,0.146-3.514-0.977-4.434-2.479c-1.408,0.566-3.219,0.065-4.023-1.275c-0.357,1.838-2.339,3.063-4.169,2.611
	c-0.269,0.377-0.65,0.629-1.095,0.746c-0.046,0.063-0.097,0.125-0.149,0.184c-0.448,0.482-1.029,0.639-1.579,0.52
	c-0.518,0.238-1.134,0.24-1.678,0.057c-0.547-0.184-1-0.549-1.258-1.022c-0.532-0.271-0.883-0.794-0.964-1.349
	c-0.445-0.383-0.724-0.922-0.738-1.518c-2.424-0.761-3.354-3.527-2.049-5.311c-0.153-0.169-0.28-0.37-0.37-0.598
	c-0.789,0.149-1.502,0.313-2.3,0.222c-1.489-0.175-2.482-0.968-3.196-2.238c-0.203-0.36-0.399-0.739-0.615-1.104
	c-0.811,0.436-1.82,0.481-2.639,0.039c-1.821-0.982-1.702-3.594,0.078-4.484c-0.928,0.232-1.901-0.344-2.149-1.268
	c-0.041-0.154-0.082-0.308-0.123-0.459c-0.472,0.061-0.989-0.103-1.451-0.193c-1.021-0.203-1.662-1.278-1.354-2.271
	c-0.514,0.096-1.036-0.035-1.445-0.365L0.656,35.18c-0.868-0.703-0.868-2.067,0-2.77l1.197-0.968
	c0.409-0.331,0.932-0.462,1.445-0.366c-0.308-0.992,0.333-2.067,1.354-2.271c0.462-0.092,0.98-0.255,1.452-0.193
	c0.185-0.688,0.32-1.215,1.024-1.58c0.373-0.193,0.79-0.248,1.191-0.161c-1.734-0.924-1.815-3.486-0.021-4.456
	c0.819-0.442,1.829-0.396,2.639,0.039c0.216-0.364,0.412-0.743,0.615-1.104c1.033-1.838,2.628-2.489,4.586-2.193
	c0.281,0.042,0.597,0.116,0.908,0.175c0.088-0.225,0.213-0.43,0.368-0.603c-1.297-1.782-0.368-4.544,2.054-5.303
	c0.015-0.596,0.292-1.135,0.738-1.516c0.08-0.555,0.431-1.078,0.962-1.349c0.014-0.026,0.027-0.051,0.043-0.076
	c0.585-0.978,1.936-1.324,2.896-0.896c0.347-0.074,0.714-0.037,1.072,0.142c0.26,0.13,0.484,0.328,0.654,0.565
	c0.443,0.115,0.826,0.367,1.095,0.743c1.884-0.486,4.055,0.874,4.222,2.996c0.831-1.28,2.597-1.746,3.973-1.192
	c0.919-1.502,2.655-2.626,4.434-2.479c-1.082-2.059-0.617-4.619,1.104-6.191c2.747-2.511,7.487-1.942,9.5,1.625
	c1.521,2.698,1.402,5.731-0.214,8.271c1.039-0.69,2.02-1.429,2.93-2.215c0.582-0.502,1.504-0.379,1.91,0.282
	c1.022-1.197,2.759-1.304,4.156-0.732c0.605,0.248,1.148,0.584,1.637,0.987c0.198-0.383,0.563-0.902,0.862-1.218
	c1.604-1.695,4.028-2.192,6.255-1.681c3.602,0.826,5.841,3.879,8.564,6.058c1.013,0.81,2.62,1.93,3.988,1.816
	c0.908-0.076,1.579-0.723,2.108-1.409c-0.818,0.295-1.732,0.17-2.571-0.182c-1.902-0.8-2.605-2.697-1.956-4.615
	c0.257-0.76,0.738-1.399,1.39-1.858l0.115-0.526c-1.07-0.119-2.1-0.847-2.285-2.108c-0.271-1.834,1.264-3.482,3.106-3.371
	c1.541,0.093,3.03,1.308,4.154,2.569c0.976-0.577,2.255-0.452,3.126,0.25c0.807-0.482,1.835-0.578,2.67,0.007
	c0.756-0.625,1.646-1.112,2.567-1.102c1.481,0.016,2.642,1.402,2.363,2.869c-0.067,0.355-0.213,0.654-0.41,0.896
	c0.342,0.59,0.51,1.403,0.367,2.091c0.414,0.547,0.732,1.161,0.935,1.809c2.071-1.571,5.412-1.434,6.446,1.231
	c1.413-2.113,3.22-3.842,5.75-4.475c1.021-0.256,2.075-0.363,3.104-0.619c0.489-0.122,0.972-0.388,1.229-0.837
	c0.125-0.218,0.213-0.537,0.102-0.778c-0.208-0.452-1.096-0.328-1.456-0.248c-1.298,0.29-2.104-1.396-1.067-2.225
	C111.103,3.881,112.467,3.261,113.768,3.435L113.768,3.435z"/>
<path fill="#D1D3D4" d="M53.675,12.787c-8.752,7.555-23.434,10.768-34.374,9.053c-0.01-0.002-0.019,0-0.026,0.007
	c-0.008,0.006-0.013,0.014-0.013,0.024c-0.365,4.003-4.006,7.204-7.916,7.589c-0.018,0.002-0.031,0.016-0.031,0.034v8.597
	c0,0.019,0.014,0.031,0.031,0.033c3.91,0.388,7.551,3.587,7.916,7.59c0.001,0.011,0.005,0.019,0.013,0.022
	c0.009,0.008,0.018,0.01,0.026,0.009c10.94-1.716,25.622,1.498,34.374,9.053c0.01,0.009,0.022,0.011,0.036,0.007
	c0.012-0.007,0.02-0.017,0.021-0.029c0.359-4.512,3.502-7.985,8.181-7.985H191.57c4.679,0,7.821,3.474,8.181,7.985
	c0.001,0.013,0.009,0.022,0.021,0.029c0.014,0.004,0.025,0.002,0.036-0.007c8.752-7.555,23.436-10.769,34.374-9.053
	c0.01,0.001,0.019-0.001,0.025-0.009c0.01-0.006,0.014-0.014,0.014-0.022c0.365-4.003,4.006-7.202,7.916-7.59
	c0.018-0.001,0.031-0.017,0.031-0.033v-8.597c0-0.018-0.015-0.032-0.031-0.034c-3.91-0.386-7.551-3.586-7.916-7.589
	c0-0.01-0.004-0.018-0.014-0.024c-0.006-0.006-0.017-0.009-0.025-0.007c-10.938,1.715-25.622-1.498-34.374-9.053
	c-0.011-0.009-0.022-0.011-0.036-0.006c-0.012,0.005-0.02,0.016-0.021,0.029c-0.37,4.673-3.602,7.985-8.364,7.985H62.096
	c-4.764,0-7.994-3.312-8.364-7.985c-0.001-0.013-0.009-0.024-0.021-0.029C53.698,12.776,53.685,12.778,53.675,12.787L53.675,12.787z
	"/>
<path fill="#FFFFFF" d="M52.865,15.019c-8.694,6.526-21.942,9.519-32.582,8.203c-0.884,3.645-4.083,6.511-7.736,7.295v6.551
	c3.651,0.785,6.853,3.65,7.736,7.295c10.642-1.315,23.891,1.678,32.586,8.205c1.118-4.094,4.479-7.01,9.043-7.01h129.657
	c4.563,0,7.924,2.916,9.042,7.01c8.695-6.527,21.945-9.521,32.586-8.205c0.884-3.643,4.084-6.51,7.736-7.295v-6.551
	c-3.652-0.785-6.852-3.651-7.736-7.295c-10.64,1.316-23.888-1.677-32.582-8.203c-1.131,4.182-4.567,7.008-9.229,7.008H62.096
	C57.434,22.027,53.996,19.2,52.865,15.019L52.865,15.019z"/>
<path fill="#FFFFFF" d="M232.097,17.344c0.471,0.593,1.506,0.933,2.014,0.247c0.857-1.162-0.955-2.345-2.012-1.863
	c-0.609,0.277-1.037,0.924-1.154,1.571c-0.149,0.837,0.125,1.814,0.845,2.443c0.969,0.848,1.991,1.042,2.987,1.003
	c0.017,0,0.029-0.012,0.033-0.028c0.002-0.016-0.006-0.031-0.02-0.038c-0.095-0.042-0.172-0.092-0.234-0.148
	c-1.025-0.939,0.658-1.766,0.799-0.485c0.002,0.017-0.008,0.031-0.022,0.037c-0.017,0.005-0.033-0.002-0.041-0.017
	c-0.338-0.62-1.297,0.609,0.42,0.587c0.889-0.011,1.896-0.435,2.883-0.32c1.16,0.136,1.789,0.771,2.266,1.619
	c0.371,0.662,0.713,1.345,1.179,1.949c0.34,0.44,0.896,1.037,1.506,1.007c0.457-0.022,0.805-0.48,0.563-0.902
	c-0.141-0.246-0.473-0.425-0.981-0.389c-0.019,0.001-0.031-0.009-0.037-0.024c-0.004-0.016,0.004-0.032,0.018-0.041
	c0.49-0.274,1.068-0.287,1.498-0.055c0.803,0.434,0.859,1.405,0.332,2.008c-0.248,0.284-0.639,0.47-1.17,0.437
	c-0.996-0.062-1.731-0.782-2.406-1.451c-0.008-0.009-0.02-0.012-0.03-0.009c-0.012,0.003-0.021,0.011-0.025,0.023
	c-0.365,1.157-1.582,2.122-2.729,1.801c-0.804-0.226-1.503-1.059-1.257-1.925c0.148-0.532,0.648-0.916,1.224-1.058
	c0.016-0.004,0.03,0.003,0.039,0.017c0.006,0.014,0.004,0.031-0.009,0.042c-1.317,1.182,0.943,2.714,1.73,0.897
	c0.342-0.786,0.227-1.614-0.205-2.221c-0.693-0.976-1.932-1.154-3.117-0.782c-0.016,0.005-0.022,0.017-0.024,0.032
	c0,0.015,0.01,0.028,0.022,0.033c0.129,0.049,0.234,0.109,0.314,0.183c1.024,0.939-0.658,1.767-0.799,0.484
	c-0.002-0.016,0.008-0.031,0.022-0.037c0.015-0.006,0.033,0.001,0.041,0.016c0.332,0.603,1.264-0.597-0.313-0.572
	c-1.787,0.027-4.257,0.279-6.054-1.256c-2.16-1.847-1.422-5.34-3.666-6.644c-1.346-0.781-2.612,0.678-1.688,1.717
	c0.473,0.531,1.42,0.652,1.766-0.046c0.008-0.015,0.023-0.022,0.039-0.019c0.017,0.003,0.027,0.019,0.025,0.035
	c-0.045,0.912-0.777,1.282-1.515,1.163c-1.674-0.271-2.114-2.59-0.905-3.585c2.53-2.083,5.061,1.708,5.221,4.055
	c0.002,0.017,0.014,0.03,0.031,0.032c0.016,0.001,0.03-0.009,0.035-0.024c0.334-1.124,1.313-2.073,2.629-2.323
	c1.598-0.305,3.291,0.669,3.254,2.464c-0.011,0.557-0.275,1.077-0.711,1.391c-0.984,0.711-2.263,0.064-2.666-0.997
	c-0.006-0.016,0-0.033,0.016-0.042C232.068,17.327,232.085,17.33,232.097,17.344L232.097,17.344z M227.406,12.116
	c0.089-0.388,0.363-0.774,1.111-0.634c0.012,0.003,0.023-0.001,0.031-0.011c0.01-0.01,0.012-0.022,0.006-0.034
	c-0.115-0.318,0.404-1.053,0.975-0.366c0.011,0.01,0.021,0.015,0.035,0.012c0.013-0.003,0.021-0.012,0.025-0.024
	c0.213-0.766,1.836-0.425,1.721,0.514c-0.002,0.011,0.002,0.021,0.01,0.029c0.011,0.008,0.021,0.011,0.031,0.009
	c0.609-0.107,1,0.604,0.447,0.898c-0.014,0.007-0.021,0.022-0.019,0.038c0.005,0.015,0.017,0.025,0.031,0.027
	c0.486,0.046,1.273,0.496,0.861,1.341c-0.006,0.012-0.019,0.019-0.029,0.019c-1.578,0.029-2.662,1.03-3.022,2.278
	c-0.007,0.016-0.021,0.027-0.037,0.025c-0.019-0.002-0.029-0.015-0.031-0.032c-0.092-1.333-0.947-3.131-2.133-4.054
	C227.408,12.142,227.404,12.129,227.406,12.116L227.406,12.116z M240.154,26.625c0.132,0.174,0.433,0.444,0.875,0.073
	c0.015-0.012,0.035-0.011,0.048,0.002c0.479,0.488,1.059,0.532,1.288-0.183c0.003-0.01,0.011-0.017,0.019-0.021
	c0.01-0.004,0.02-0.004,0.029,0c0.127,0.06,0.563,0.22,0.768-0.255c0.004-0.009,0.004-0.018,0-0.027
	c-0.004-0.01-0.01-0.016-0.02-0.019c-0.675-0.244-1.22-0.8-1.718-1.296c-0.008-0.009-0.02-0.012-0.03-0.009
	c-0.015,0.003-0.021,0.011-0.025,0.023c-0.242,0.792-0.688,1.368-1.223,1.66c-0.009,0.005-0.017,0.013-0.019,0.023
	C240.144,26.606,240.146,26.617,240.154,26.625L240.154,26.625z M232.097,50.257c0.471-0.594,1.506-0.935,2.014-0.247
	c0.857,1.162-0.955,2.346-2.012,1.863c-0.609-0.277-1.037-0.924-1.154-1.57c-0.149-0.838,0.125-1.814,0.845-2.443
	c0.969-0.848,1.991-1.041,2.987-1.004c0.017,0,0.029,0.013,0.031,0.027c0.004,0.016-0.004,0.032-0.02,0.038
	c-0.093,0.042-0.17,0.093-0.232,0.147c-1.025,0.939,0.658,1.767,0.799,0.486c0.002-0.018-0.008-0.033-0.022-0.037
	c-0.016-0.006-0.033,0.002-0.041,0.017c-0.338,0.62-1.297-0.609,0.42-0.587c0.889,0.011,1.895,0.435,2.883,0.318
	c1.16-0.135,1.789-0.77,2.264-1.617c0.373-0.662,0.715-1.346,1.181-1.948c0.34-0.441,0.896-1.038,1.506-1.009
	c0.457,0.021,0.805,0.48,0.563,0.902c-0.141,0.246-0.473,0.426-0.981,0.389c-0.019,0-0.031,0.011-0.037,0.025
	c-0.004,0.016,0.004,0.031,0.018,0.039c0.49,0.273,1.068,0.287,1.498,0.055c0.803-0.434,0.861-1.402,0.332-2.006
	c-0.248-0.285-0.639-0.471-1.17-0.439c-0.996,0.063-1.731,0.783-2.406,1.451c-0.008,0.01-0.02,0.013-0.03,0.01
	c-0.012-0.004-0.021-0.012-0.025-0.023c-0.365-1.156-1.584-2.121-2.729-1.8c-0.804,0.226-1.503,1.058-1.257,1.925
	c0.148,0.531,0.648,0.916,1.224,1.059c0.016,0.004,0.03-0.004,0.039-0.018c0.008-0.014,0.004-0.031-0.009-0.041
	c-1.317-1.184,0.943-2.715,1.73-0.898c0.342,0.787,0.227,1.615-0.205,2.223c-0.693,0.977-1.932,1.152-3.117,0.782
	c-0.016-0.005-0.022-0.019-0.024-0.032c0-0.016,0.008-0.027,0.022-0.033c0.129-0.049,0.234-0.109,0.314-0.183
	c1.024-0.938-0.658-1.767-0.799-0.483c-0.002,0.016,0.008,0.03,0.022,0.036c0.017,0.005,0.033-0.002,0.041-0.017
	c0.332-0.604,1.264,0.597-0.313,0.572c-1.787-0.026-4.257-0.279-6.054,1.256c-2.162,1.847-1.422,5.34-3.666,6.645
	c-1.346,0.779-2.612-0.678-1.688-1.717c0.473-0.531,1.42-0.65,1.766,0.046c0.008,0.017,0.023,0.022,0.039,0.019
	c0.017-0.002,0.027-0.019,0.025-0.035c-0.045-0.912-0.777-1.281-1.515-1.162c-1.674,0.271-2.114,2.591-0.905,3.586
	c2.528,2.082,5.061-1.709,5.221-4.055c0.002-0.019,0.014-0.031,0.031-0.033c0.016-0.002,0.03,0.01,0.035,0.024
	c0.334,1.124,1.313,2.073,2.629,2.323c1.598,0.305,3.291-0.669,3.254-2.464c-0.013-0.558-0.275-1.078-0.711-1.392
	c-0.984-0.713-2.263-0.063-2.666,0.996c-0.006,0.016,0,0.033,0.016,0.041C232.068,50.273,232.085,50.271,232.097,50.257
	L232.097,50.257z M227.406,55.484c0.089,0.388,0.363,0.773,1.111,0.635c0.012-0.003,0.023,0.001,0.031,0.012
	c0.01,0.01,0.012,0.021,0.006,0.034c-0.115,0.317,0.404,1.054,0.975,0.364c0.011-0.01,0.021-0.014,0.035-0.012
	c0.013,0.004,0.021,0.012,0.025,0.024c0.213,0.767,1.836,0.425,1.721-0.515c-0.002-0.012,0.002-0.021,0.01-0.029
	c0.011-0.008,0.021-0.01,0.031-0.008c0.609,0.105,1-0.604,0.447-0.898c-0.014-0.008-0.021-0.021-0.019-0.037
	c0.005-0.016,0.017-0.025,0.031-0.027c0.486-0.047,1.273-0.496,0.861-1.342c-0.006-0.012-0.017-0.02-0.029-0.02
	c-1.578-0.029-2.662-1.029-3.022-2.277c-0.007-0.017-0.021-0.027-0.037-0.025c-0.018,0.003-0.029,0.017-0.031,0.033
	c-0.092,1.332-0.947,3.129-2.133,4.054C227.408,55.458,227.404,55.473,227.406,55.484L227.406,55.484z M240.154,40.977
	c0.132-0.174,0.433-0.443,0.875-0.074c0.015,0.013,0.035,0.012,0.048-0.002c0.479-0.488,1.059-0.531,1.288,0.184
	c0.003,0.01,0.011,0.018,0.019,0.021c0.01,0.004,0.02,0.004,0.029-0.002c0.127-0.06,0.563-0.22,0.768,0.256
	c0.004,0.01,0.004,0.019,0,0.027c-0.004,0.01-0.01,0.016-0.02,0.02c-0.675,0.242-1.22,0.799-1.718,1.295
	c-0.008,0.009-0.02,0.012-0.03,0.009c-0.015-0.003-0.021-0.011-0.025-0.022c-0.242-0.791-0.688-1.367-1.223-1.66
	c-0.009-0.004-0.015-0.012-0.019-0.022C240.144,40.993,240.146,40.982,240.154,40.977L240.154,40.977z M243.896,34.796
	c1.121,0.944,2.244,1.89,3.365,2.832c0.131,0.11,0.291,0.151,0.461,0.119c0.289-0.06,0.58-0.115,0.869-0.175
	c0.166-0.032,0.295-0.129,0.377-0.277c0.08-0.148,0.088-0.311,0.023-0.467c-0.097-0.239-0.193-0.479-0.291-0.719
	c-0.068-0.166-0.199-0.28-0.373-0.323c-1.457-0.369-2.914-0.738-4.371-1.106c-0.031-0.008-0.063,0.006-0.076,0.034
	C243.865,34.742,243.873,34.775,243.896,34.796L243.896,34.796z M243.505,35.572c0.297,1.105,0.592,2.212,0.889,3.316
	c0.047,0.178,0.166,0.309,0.34,0.373c0.205,0.074,0.408,0.15,0.613,0.227c0.15,0.056,0.301,0.047,0.443-0.027
	c0.141-0.072,0.235-0.189,0.276-0.345c0.045-0.166,0.088-0.332,0.134-0.498c0.051-0.188,0.004-0.376-0.132-0.519
	c-0.815-0.865-1.633-1.729-2.448-2.592c-0.021-0.021-0.056-0.027-0.082-0.013C243.511,35.512,243.498,35.542,243.505,35.572
	L243.505,35.572z M244.007,33.727l6.383-1.438c0.17-0.038,0.332,0,0.467,0.109l1.197,0.968c0.133,0.107,0.203,0.255,0.203,0.426
	c0,0.172-0.07,0.319-0.203,0.429l-1.197,0.967c-0.135,0.108-0.297,0.146-0.467,0.108l-6.383-1.438
	c-0.031-0.007-0.053-0.034-0.053-0.066C243.955,33.76,243.976,33.733,244.007,33.727L244.007,33.727z M243.896,32.788
	c1.121-0.943,2.244-1.888,3.365-2.832c0.131-0.111,0.291-0.151,0.461-0.118c0.289,0.058,0.58,0.115,0.869,0.173
	c0.166,0.033,0.295,0.129,0.377,0.278c0.08,0.149,0.088,0.31,0.023,0.467c-0.097,0.239-0.193,0.478-0.291,0.717
	c-0.068,0.167-0.199,0.281-0.373,0.325c-1.457,0.369-2.914,0.738-4.371,1.106c-0.031,0.008-0.063-0.006-0.076-0.035
	C243.865,32.842,243.873,32.809,243.896,32.788L243.896,32.788z M243.505,32.012c0.297-1.105,0.592-2.211,0.889-3.317
	c0.047-0.177,0.166-0.309,0.34-0.373c0.203-0.075,0.408-0.151,0.613-0.227c0.15-0.055,0.301-0.046,0.443,0.028
	c0.141,0.074,0.235,0.191,0.276,0.345c0.045,0.166,0.088,0.332,0.134,0.498c0.051,0.189,0.004,0.376-0.132,0.518
	c-0.815,0.864-1.633,1.728-2.448,2.591c-0.021,0.023-0.056,0.028-0.082,0.013C243.511,32.073,243.498,32.042,243.505,32.012
	L243.505,32.012z M219.814,51.273c1.979-0.52,2.472,2.192,0.443,2.848c-0.934,0.301-1.846-0.032-2.396-0.816
	c-0.008-0.013-0.021-0.018-0.034-0.015c-0.015,0.003-0.024,0.015-0.026,0.026c-0.249,1.439-1.503,2.756-2.921,3.09
	c-0.922,0.217-1.851-0.016-2.496-0.831c-0.536-0.679-0.566-1.533-0.166-1.984c0.336-0.381,0.74-0.53,1.102-0.516
	c0.017,0,0.027-0.009,0.033-0.021c0.006-0.016,0.002-0.029-0.01-0.041c-3.563-3.029-9.76,1.484-8.047,6.12
	c0.617,1.665,2.14,2.931,3.729,2.952c1.364,0.018,2.89-0.968,2.785-2.466c-0.063-0.919-0.699-1.784-1.606-1.875
	c-0.779-0.078-1.302,0.377-0.933,1.047c0.989,1.797-1.149,2.239-1.365,0.192c-0.152-1.453,1.402-2.432,2.699-2.293
	c2.18,0.232,3.09,2.729,2.498,4.574c-1.11,3.467-6.571,4.172-8.701,0.396c-3.805-6.747,5.195-13.666,9.577-8.965
	c0.395,0.424,0.792,1.41,0.116,1.98c-0.01,0.01-0.024,0.012-0.037,0.004c-0.013-0.006-0.02-0.019-0.02-0.033
	c0.069-1.023-1.599-0.752-1.151,0.234c0.271,0.598,0.978,0.938,1.825,0.809c1.421-0.215,2.643-1.519,2.854-2.926
	c0.001-0.006,0-0.011-0.002-0.017c-1.479-4.207,4.653-7.171,7.254-4.444c0.752,0.786-0.287,1.75-0.946,0.467c0,0,0,0,0-0.002
	c-1.666-2.705-6.516,0.188-5.291,3.074c0.811,1.911,2.374,0.008,1.229-0.506c-0.014-0.006-0.021-0.02-0.02-0.033
	C219.79,51.29,219.8,51.277,219.814,51.273L219.814,51.273z M219.814,16.791c1.979,0.519,2.472-2.192,0.443-2.846
	c-0.932-0.301-1.846,0.031-2.396,0.816c-0.008,0.011-0.021,0.017-0.034,0.014c-0.015-0.003-0.023-0.014-0.026-0.028
	c-0.249-1.439-1.503-2.754-2.921-3.088c-0.922-0.217-1.851,0.016-2.496,0.831c-0.536,0.677-0.566,1.534-0.166,1.985
	c0.336,0.38,0.74,0.531,1.102,0.516c0.017-0.001,0.028,0.008,0.033,0.021c0.006,0.014,0.002,0.029-0.01,0.039
	c-3.563,3.031-9.76-1.484-8.047-6.119c0.616-1.666,2.14-2.932,3.728-2.953c1.365-0.018,2.892,0.967,2.786,2.466
	c-0.063,0.919-0.699,1.785-1.606,1.876c-0.779,0.078-1.303-0.377-0.933-1.048c0.989-1.796-1.149-2.24-1.365-0.193
	c-0.152,1.454,1.402,2.433,2.699,2.294c2.178-0.233,3.09-2.729,2.498-4.575c-1.11-3.467-6.571-4.171-8.701-0.395
	c-3.805,6.747,5.195,13.666,9.577,8.964c0.395-0.423,0.792-1.41,0.116-1.98c-0.01-0.009-0.024-0.011-0.037-0.004
	c-0.013,0.006-0.02,0.019-0.02,0.033c0.069,1.025-1.599,0.751-1.151-0.234c0.271-0.598,0.978-0.936,1.825-0.808
	c1.421,0.214,2.643,1.518,2.854,2.925c0,0.006,0,0.011-0.002,0.017c-1.479,4.207,4.653,7.171,7.254,4.445
	c0.752-0.787-0.287-1.75-0.946-0.468c0,0.001,0,0.001,0,0.002c-1.666,2.705-6.516-0.188-5.291-3.073
	c0.811-1.912,2.374-0.008,1.23,0.504c-0.015,0.006-0.021,0.02-0.021,0.035C219.791,16.775,219.8,16.787,219.814,16.791
	L219.814,16.791z M33.666,16.791c-1.979,0.519-2.472-2.192-0.443-2.846c0.933-0.301,1.846,0.032,2.396,0.816
	c0.008,0.011,0.021,0.017,0.035,0.014s0.023-0.014,0.026-0.028c0.25-1.439,1.502-2.754,2.921-3.088
	c0.922-0.217,1.851,0.016,2.496,0.831c0.536,0.677,0.566,1.534,0.166,1.985c-0.336,0.38-0.741,0.531-1.102,0.516
	c-0.016-0.001-0.028,0.008-0.033,0.021c-0.005,0.015-0.002,0.029,0.01,0.039c3.564,3.031,9.761-1.484,8.047-6.119
	C47.57,7.266,46.047,6,44.459,5.979c-1.365-0.018-2.892,0.967-2.786,2.466c0.063,0.919,0.7,1.785,1.606,1.876
	c0.779,0.078,1.303-0.377,0.933-1.048c-0.989-1.796,1.15-2.24,1.366-0.193c0.152,1.454-1.403,2.433-2.7,2.294
	c-2.178-0.233-3.09-2.729-2.498-4.575c1.111-3.467,6.572-4.171,8.702-0.395c3.805,6.747-5.195,13.666-9.577,8.964
	c-0.395-0.423-0.792-1.41-0.117-1.98c0.011-0.009,0.025-0.011,0.038-0.005c0.013,0.006,0.02,0.02,0.019,0.034
	c-0.069,1.025,1.599,0.751,1.152-0.234c-0.271-0.598-0.978-0.936-1.825-0.808c-1.421,0.214-2.643,1.518-2.854,2.925
	c-0.001,0.006,0,0.011,0.002,0.017c1.479,4.207-4.653,7.171-7.255,4.445c-0.751-0.787,0.287-1.75,0.947-0.468
	c0,0.001,0,0.001,0.001,0.002c1.665,2.705,6.515-0.188,5.29-3.073c-0.811-1.912-2.374-0.008-1.23,0.504
	c0.014,0.006,0.021,0.02,0.021,0.035C33.69,16.775,33.68,16.787,33.666,16.791L33.666,16.791z M33.666,51.273
	c-1.979-0.52-2.472,2.192-0.444,2.848c0.933,0.301,1.846-0.032,2.396-0.816c0.008-0.013,0.021-0.018,0.035-0.015
	c0.016,0.003,0.024,0.015,0.026,0.026c0.25,1.439,1.502,2.756,2.921,3.09c0.921,0.217,1.851-0.016,2.496-0.831
	c0.536-0.679,0.566-1.533,0.166-1.984c-0.336-0.381-0.741-0.53-1.102-0.516c-0.016,0-0.028-0.009-0.034-0.022
	c-0.005-0.014-0.001-0.027,0.01-0.039c3.564-3.029,9.761,1.484,8.046,6.12c-0.616,1.665-2.139,2.931-3.727,2.952
	c-1.365,0.018-2.891-0.968-2.786-2.466c0.063-0.919,0.7-1.784,1.605-1.875c0.78-0.078,1.303,0.377,0.934,1.047
	c-0.989,1.797,1.15,2.239,1.366,0.192c0.152-1.453-1.403-2.432-2.7-2.293c-2.18,0.232-3.09,2.729-2.499,4.574
	c1.11,3.467,6.571,4.172,8.702,0.396c3.805-6.747-5.195-13.666-9.577-8.965c-0.395,0.424-0.792,1.41-0.117,1.98
	c0.011,0.01,0.025,0.012,0.038,0.004c0.013-0.006,0.02-0.019,0.019-0.033c-0.068-1.023,1.599-0.752,1.151,0.234
	c-0.271,0.598-0.978,0.938-1.825,0.809c-1.42-0.215-2.642-1.519-2.853-2.926c-0.001-0.006,0-0.011,0.002-0.017
	c1.479-4.207-4.653-7.171-7.255-4.444c-0.751,0.786,0.286,1.75,0.947,0.467c0,0,0,0,0.001-0.002c1.664-2.705,6.515,0.188,5.29,3.074
	c-0.811,1.911-2.374,0.008-1.23-0.506c0.014-0.006,0.021-0.02,0.021-0.033C33.69,51.29,33.68,51.277,33.666,51.273L33.666,51.273z
	 M9.974,32.012c-0.295-1.105-0.592-2.211-0.887-3.317c-0.047-0.177-0.167-0.309-0.34-0.373c-0.205-0.075-0.409-0.151-0.614-0.227
	c-0.15-0.055-0.3-0.046-0.442,0.028c-0.142,0.074-0.235,0.191-0.277,0.345C7.369,28.634,7.324,28.8,7.28,28.966
	c-0.051,0.189-0.003,0.376,0.132,0.518c0.815,0.864,1.633,1.728,2.448,2.591c0.021,0.023,0.056,0.028,0.082,0.013
	C9.969,32.073,9.981,32.042,9.974,32.012L9.974,32.012z M9.583,32.788C8.462,31.845,7.34,30.9,6.219,29.956
	c-0.132-0.111-0.291-0.151-0.46-0.118c-0.291,0.058-0.581,0.115-0.87,0.173c-0.167,0.033-0.296,0.129-0.376,0.278
	c-0.081,0.149-0.089,0.31-0.025,0.467c0.099,0.239,0.195,0.478,0.292,0.717c0.068,0.167,0.199,0.281,0.374,0.325
	c1.458,0.369,2.915,0.738,4.372,1.106c0.031,0.008,0.063-0.006,0.076-0.035C9.615,32.842,9.608,32.809,9.583,32.788L9.583,32.788z
	 M9.473,33.727l-6.384-1.438c-0.169-0.038-0.331,0-0.466,0.109l-1.197,0.968c-0.133,0.107-0.204,0.255-0.204,0.426
	c0,0.172,0.071,0.319,0.204,0.429l1.197,0.967c0.135,0.108,0.296,0.146,0.466,0.108l6.384-1.438
	c0.031-0.007,0.052-0.034,0.052-0.066S9.504,33.733,9.473,33.727L9.473,33.727z M9.974,35.572c-0.295,1.105-0.592,2.212-0.887,3.316
	c-0.047,0.178-0.167,0.309-0.34,0.373c-0.205,0.074-0.41,0.15-0.614,0.227c-0.15,0.056-0.301,0.047-0.443-0.027
	c-0.142-0.072-0.235-0.189-0.277-0.345c-0.044-0.166-0.088-0.332-0.134-0.498C7.228,38.43,7.276,38.242,7.41,38.1
	c0.815-0.865,1.633-1.729,2.448-2.592c0.021-0.021,0.056-0.027,0.082-0.013C9.969,35.512,9.981,35.542,9.974,35.572L9.974,35.572z
	 M9.583,34.796c-1.121,0.944-2.243,1.89-3.365,2.832c-0.132,0.11-0.291,0.151-0.46,0.119c-0.29-0.06-0.58-0.115-0.87-0.175
	c-0.166-0.032-0.295-0.129-0.376-0.277c-0.08-0.148-0.089-0.311-0.025-0.467c0.098-0.239,0.195-0.479,0.292-0.719
	c0.068-0.166,0.199-0.28,0.374-0.323c1.457-0.369,2.914-0.738,4.371-1.106c0.031-0.008,0.063,0.006,0.077,0.034
	S9.608,34.775,9.583,34.796L9.583,34.796z M13.327,40.977c-0.132-0.174-0.433-0.443-0.876-0.074
	c-0.015,0.013-0.034,0.012-0.048-0.002c-0.478-0.488-1.057-0.531-1.287,0.184c-0.004,0.01-0.011,0.018-0.02,0.021
	c-0.01,0.004-0.019,0.004-0.028-0.002c-0.127-0.06-0.563-0.22-0.769,0.256c-0.004,0.01-0.004,0.019,0,0.027
	c0.004,0.01,0.011,0.016,0.02,0.02c0.676,0.244,1.219,0.799,1.717,1.295c0.009,0.009,0.021,0.012,0.031,0.009
	c0.013-0.003,0.021-0.011,0.025-0.022c0.242-0.791,0.688-1.367,1.223-1.66c0.01-0.004,0.016-0.012,0.018-0.022
	C13.335,40.993,13.333,40.982,13.327,40.977L13.327,40.977z M26.073,55.484c-0.088,0.388-0.362,0.773-1.109,0.635
	c-0.013-0.003-0.024,0.001-0.033,0.012c-0.008,0.01-0.01,0.021-0.006,0.034c0.116,0.317-0.403,1.054-0.974,0.364
	c-0.009-0.01-0.021-0.014-0.033-0.012c-0.014,0.004-0.023,0.012-0.026,0.024c-0.213,0.767-1.837,0.425-1.721-0.515
	c0.001-0.012-0.002-0.021-0.01-0.029c-0.009-0.008-0.02-0.01-0.03-0.008c-0.61,0.105-1.001-0.604-0.448-0.898
	c0.014-0.008,0.021-0.021,0.019-0.037c-0.004-0.016-0.016-0.025-0.03-0.027c-0.487-0.047-1.275-0.496-0.863-1.342
	c0.006-0.012,0.019-0.02,0.031-0.02c1.577-0.029,2.661-1.029,3.022-2.277c0.006-0.017,0.021-0.027,0.037-0.025
	c0.018,0.003,0.03,0.017,0.031,0.031c0.092,1.334,0.948,3.131,2.134,4.056C26.072,55.458,26.077,55.473,26.073,55.484L26.073,55.484
	z M21.383,50.257c-0.472-0.594-1.507-0.935-2.014-0.247c-0.857,1.162,0.955,2.346,2.012,1.863c0.607-0.277,1.037-0.924,1.153-1.57
	c0.15-0.838-0.124-1.814-0.844-2.443c-0.969-0.848-1.991-1.041-2.987-1.004c-0.017,0-0.029,0.013-0.032,0.027
	c-0.003,0.016,0.004,0.032,0.02,0.038c0.093,0.042,0.17,0.093,0.232,0.147c1.024,0.939-0.658,1.767-0.799,0.486
	c-0.001-0.018,0.008-0.031,0.022-0.037c0.018-0.006,0.033,0.002,0.042,0.017c0.339,0.62,1.297-0.609-0.42-0.587
	c-0.888,0.011-1.895,0.435-2.882,0.318c-1.16-0.135-1.788-0.77-2.264-1.617c-0.372-0.662-0.713-1.346-1.18-1.948
	c-0.34-0.441-0.896-1.038-1.506-1.009c-0.457,0.021-0.804,0.48-0.563,0.902c0.14,0.246,0.472,0.426,0.982,0.389
	c0.017,0,0.031,0.011,0.035,0.025c0.005,0.016-0.002,0.031-0.016,0.039c-0.49,0.273-1.069,0.287-1.498,0.055
	c-0.804-0.434-0.86-1.402-0.333-2.006c0.249-0.285,0.64-0.471,1.171-0.439c0.996,0.063,1.732,0.783,2.405,1.451
	c0.009,0.01,0.021,0.013,0.031,0.01c0.013-0.004,0.021-0.012,0.025-0.023c0.365-1.156,1.583-2.121,2.729-1.8
	c0.802,0.226,1.502,1.058,1.257,1.925c-0.151,0.531-0.649,0.916-1.224,1.059c-0.016,0.004-0.03-0.004-0.039-0.018
	c-0.008-0.014-0.004-0.031,0.008-0.041c1.317-1.184-0.943-2.715-1.731-0.898c-0.34,0.787-0.226,1.615,0.205,2.223
	c0.694,0.977,1.932,1.152,3.119,0.782c0.014-0.005,0.022-0.019,0.023-0.032c0.001-0.016-0.008-0.027-0.021-0.033
	c-0.129-0.049-0.235-0.109-0.315-0.183c-1.025-0.938,0.659-1.767,0.799-0.483c0.002,0.016-0.008,0.03-0.023,0.036
	c-0.016,0.005-0.033-0.002-0.041-0.017c-0.332-0.604-1.263,0.597,0.314,0.572c1.787-0.026,4.256-0.279,6.054,1.256
	c2.161,1.847,1.421,5.34,3.667,6.645c1.345,0.779,2.611-0.678,1.688-1.717c-0.472-0.531-1.421-0.65-1.766,0.046
	c-0.008,0.017-0.024,0.022-0.04,0.019s-0.026-0.019-0.025-0.035c0.046-0.912,0.777-1.281,1.515-1.162
	c1.674,0.271,2.115,2.591,0.906,3.586c-2.53,2.082-5.061-1.709-5.221-4.055c-0.001-0.019-0.014-0.031-0.031-0.033
	c-0.017-0.002-0.031,0.01-0.036,0.024c-0.333,1.124-1.313,2.073-2.628,2.323c-1.599,0.305-3.292-0.669-3.256-2.464
	c0.012-0.558,0.276-1.078,0.711-1.392c0.984-0.713,2.263-0.063,2.666,0.996c0.007,0.016,0,0.033-0.016,0.041
	C21.413,50.273,21.394,50.271,21.383,50.257L21.383,50.257z M13.327,26.625c-0.132,0.174-0.433,0.444-0.876,0.073
	c-0.015-0.011-0.034-0.011-0.048,0.002c-0.479,0.488-1.058,0.532-1.288-0.183c-0.004-0.01-0.01-0.017-0.02-0.021
	s-0.019-0.004-0.028,0c-0.127,0.06-0.563,0.22-0.769-0.255c-0.004-0.009-0.004-0.018,0-0.027c0.004-0.009,0.011-0.016,0.02-0.019
	c0.676-0.244,1.22-0.8,1.717-1.295c0.009-0.009,0.021-0.013,0.032-0.009c0.013,0.003,0.021,0.011,0.024,0.023
	c0.242,0.792,0.688,1.368,1.223,1.66c0.01,0.005,0.016,0.013,0.018,0.023C13.334,26.607,13.333,26.617,13.327,26.625L13.327,26.625z
	 M26.073,12.116c-0.088-0.388-0.362-0.774-1.109-0.634c-0.013,0.003-0.024-0.001-0.033-0.012c-0.008-0.009-0.01-0.022-0.006-0.034
	c0.116-0.318-0.404-1.053-0.975-0.366c-0.009,0.01-0.021,0.015-0.033,0.012c-0.014-0.003-0.023-0.012-0.026-0.024
	c-0.213-0.766-1.837-0.425-1.721,0.514c0.001,0.011-0.002,0.021-0.011,0.029c-0.01,0.008-0.02,0.011-0.03,0.009
	c-0.61-0.107-1.001,0.604-0.448,0.898c0.014,0.007,0.021,0.022,0.018,0.038c-0.003,0.015-0.015,0.025-0.029,0.027
	c-0.487,0.046-1.275,0.496-0.862,1.341c0.005,0.012,0.017,0.019,0.03,0.019c1.577,0.029,2.662,1.03,3.022,2.278
	c0.005,0.016,0.021,0.026,0.037,0.025c0.018-0.002,0.029-0.015,0.03-0.032c0.092-1.333,0.948-3.131,2.134-4.054
	C26.072,12.142,26.076,12.129,26.073,12.116L26.073,12.116z M21.383,17.344c-0.472,0.593-1.507,0.933-2.014,0.247
	c-0.858-1.162,0.955-2.345,2.012-1.863c0.607,0.277,1.037,0.924,1.153,1.571c0.15,0.837-0.124,1.814-0.844,2.443
	c-0.969,0.848-1.991,1.042-2.988,1.003c-0.017,0-0.029-0.012-0.033-0.028c-0.003-0.016,0.005-0.031,0.02-0.038
	c0.094-0.042,0.171-0.092,0.233-0.148c1.024-0.939-0.658-1.766-0.798-0.485c-0.002,0.017,0.008,0.031,0.022,0.037
	c0.017,0.005,0.033-0.002,0.041-0.017c0.339-0.62,1.297,0.609-0.42,0.587c-0.888-0.011-1.895-0.435-2.882-0.32
	c-1.16,0.136-1.789,0.771-2.264,1.619c-0.372,0.662-0.713,1.345-1.18,1.949c-0.34,0.44-0.896,1.037-1.506,1.007
	c-0.457-0.022-0.804-0.48-0.563-0.902c0.14-0.246,0.472-0.425,0.982-0.389c0.017,0.001,0.031-0.009,0.036-0.024
	c0.004-0.016-0.002-0.032-0.016-0.041c-0.491-0.274-1.07-0.287-1.499-0.055c-0.804,0.434-0.86,1.405-0.333,2.008
	c0.25,0.284,0.64,0.47,1.171,0.437c0.996-0.062,1.731-0.782,2.405-1.451c0.009-0.009,0.021-0.012,0.032-0.009
	c0.013,0.003,0.021,0.011,0.024,0.023c0.365,1.157,1.583,2.122,2.729,1.801c0.802-0.226,1.502-1.059,1.257-1.925
	c-0.15-0.532-0.65-0.916-1.224-1.058c-0.016-0.004-0.031,0.003-0.039,0.017c-0.008,0.014-0.004,0.031,0.008,0.042
	c1.317,1.182-0.943,2.714-1.731,0.897c-0.34-0.786-0.227-1.614,0.205-2.221c0.693-0.976,1.932-1.154,3.118-0.782
	c0.014,0.005,0.023,0.017,0.023,0.032c0.001,0.015-0.008,0.028-0.021,0.033c-0.129,0.049-0.235,0.109-0.314,0.183
	c-1.025,0.939,0.659,1.767,0.798,0.484c0.002-0.017-0.008-0.032-0.022-0.037c-0.017-0.005-0.033,0.001-0.041,0.016
	c-0.332,0.603-1.263-0.597,0.314-0.572c1.788,0.027,4.256,0.279,6.054-1.256c2.161-1.847,1.421-5.34,3.667-6.644
	c1.344-0.781,2.611,0.678,1.688,1.717c-0.472,0.531-1.421,0.652-1.766-0.046c-0.007-0.015-0.024-0.023-0.04-0.019
	s-0.026,0.019-0.026,0.035c0.046,0.912,0.777,1.282,1.515,1.163c1.674-0.271,2.115-2.59,0.906-3.585
	c-2.53-2.083-5.061,1.708-5.221,4.055c-0.001,0.017-0.014,0.031-0.031,0.032c-0.017,0.001-0.031-0.009-0.037-0.024
	c-0.333-1.124-1.313-2.073-2.627-2.323c-1.599-0.305-3.292,0.669-3.256,2.464c0.012,0.557,0.277,1.077,0.711,1.391
	c0.985,0.711,2.263,0.064,2.666-0.997c0.006-0.016,0-0.033-0.015-0.042C21.413,17.327,21.394,17.33,21.383,17.344L21.383,17.344z
	 M123.822,48.495c-1.812,0.483-3.624,0.97-5.435,1.454c-0.292,0.078-0.507,0.273-0.612,0.558c-0.124,0.337-0.248,0.671-0.372,1.007
	c-0.091,0.245-0.074,0.491,0.045,0.725c0.12,0.234,0.313,0.389,0.566,0.455c0.272,0.074,0.544,0.146,0.815,0.219
	c0.311,0.083,0.616,0.006,0.85-0.215c1.416-1.338,2.831-2.676,4.246-4.014c0.037-0.035,0.045-0.09,0.021-0.136
	C123.922,48.504,123.872,48.482,123.822,48.495L123.822,48.495z M125.094,49.135c-1.547,1.84-3.094,3.678-4.641,5.516
	c-0.183,0.217-0.249,0.477-0.194,0.754c0.094,0.477,0.188,0.951,0.284,1.426c0.055,0.271,0.211,0.484,0.456,0.615
	c0.245,0.133,0.508,0.146,0.765,0.043c0.392-0.16,0.784-0.319,1.176-0.479c0.273-0.11,0.46-0.325,0.533-0.612
	c0.604-2.388,1.208-4.775,1.813-7.162c0.013-0.051-0.011-0.104-0.057-0.127C125.183,49.083,125.127,49.096,125.094,49.135
	L125.094,49.135z M126.632,49.316l-2.356,10.461c-0.063,0.277-0.001,0.543,0.179,0.765l1.587,1.961
	c0.176,0.22,0.418,0.334,0.698,0.334c0.281,0,0.523-0.114,0.699-0.334l1.587-1.961c0.18-0.222,0.241-0.485,0.18-0.765l-2.357-10.461
	c-0.011-0.051-0.056-0.088-0.108-0.086C126.688,49.23,126.644,49.266,126.632,49.316L126.632,49.316z M129.658,48.495
	c1.812,0.483,3.622,0.97,5.436,1.454c0.291,0.076,0.506,0.273,0.611,0.558c0.123,0.337,0.248,0.671,0.371,1.007
	c0.092,0.245,0.075,0.491-0.046,0.725c-0.12,0.234-0.313,0.389-0.565,0.455c-0.271,0.074-0.544,0.146-0.814,0.219
	c-0.311,0.083-0.616,0.006-0.851-0.215c-1.415-1.338-2.831-2.676-4.246-4.014c-0.037-0.035-0.046-0.09-0.021-0.136
	C129.558,48.504,129.609,48.482,129.658,48.495L129.658,48.495z M128.385,49.134c1.548,1.839,3.095,3.677,4.642,5.517
	c0.183,0.215,0.249,0.477,0.193,0.754c-0.094,0.476-0.189,0.951-0.283,1.426c-0.055,0.271-0.211,0.484-0.456,0.617
	c-0.245,0.131-0.508,0.146-0.765,0.041c-0.394-0.16-0.784-0.319-1.176-0.479c-0.273-0.11-0.461-0.325-0.533-0.612
	c-0.604-2.388-1.209-4.775-1.813-7.162c-0.013-0.051,0.012-0.103,0.057-0.127C128.296,49.083,128.352,49.096,128.385,49.134
	L128.385,49.134z M169.212,60.287c0.938,1.293,2.65,3.158,4.188,3.252c1.045,0.063,1.976-0.872,1.814-1.962
	c-0.188-1.269-2.283-1.546-2.459-0.163c-0.044,0.336,0.08,0.65,0.358,0.716c0.014,0.004,0.025,0,0.033-0.01
	c0.01-0.011,0.013-0.022,0.008-0.035c-0.334-0.951,1.22-0.801,1.229,0.106c0.005,0.447-0.355,0.91-1.078,0.834
	c-1.395-0.147-3.09-1.75-3.83-3.047c-0.008-0.014-0.006-0.028,0.004-0.041c0.01-0.01,0.025-0.015,0.039-0.01
	c0.869,0.344,3.135,0.992,3.525-1.338c0.002-0.012-0.002-0.023-0.013-0.031c-0.01-0.008-0.021-0.011-0.032-0.008
	c-0.445,0.137-3.576,0.957-4.702-2.627c-0.005-0.014-0.016-0.021-0.028-0.023c-0.015-0.002-0.026,0.006-0.034,0.019
	c-2.101,3.64-7.001,3.453-8.481,1.528c-0.009-0.012-0.022-0.018-0.037-0.012c-0.014,0.004-0.022,0.016-0.024,0.029
	c-0.183,1.895,1.759,2.564,3.773,2.18c0.014-0.002,0.027,0.002,0.035,0.016c0.008,0.012,0.008,0.025,0,0.037
	c-0.562,0.816-1.691,1.742-2.601,1.773c-0.487,0.018-0.719-0.313-0.703-0.611c0.032-0.604,1.063-0.637,0.838-0.03
	c-0.006,0.012-0.004,0.024,0.007,0.034c0.008,0.01,0.021,0.014,0.033,0.011c0.176-0.041,0.26-0.24,0.24-0.461
	c-0.081-0.938-1.499-0.853-1.659-0.009c-0.138,0.726,0.463,1.4,1.166,1.406c0.973,0.012,2.092-1.021,2.775-1.828
	c0.01-0.012,0.024-0.016,0.039-0.01c0.014,0.004,0.021,0.019,0.022,0.031c0.017,1.438,1.757,1.477,2.508,0.105
	c0.007-0.014,0.019-0.021,0.031-0.019c0.016,0,0.025,0.011,0.03,0.022c0.578,1.684,2.624,1.517,2.922,0.185
	c0.003-0.014,0.014-0.022,0.026-0.024C169.191,60.271,169.205,60.275,169.212,60.287L169.212,60.287z M191.728,50.913
	c-1.126-2.121-3.582-2.787-5.594-2.185c-1.658,0.496-2.879,1.898-2.7,3.609c0.107,1.023,0.75,2.02,1.979,2.535
	c1.335,0.561,2.93,0.063,3.165-1.253c0.234-1.317-1.411-2.315-2.52-1.274c-0.012,0.01-0.014,0.025-0.008,0.039
	c0.007,0.016,0.021,0.021,0.037,0.02c0.945-0.151,1.021,1.043,0.17,1.259c-1.252,0.313-2.179-1.162-1.648-2.187
	c0.975-1.881,3.963-1.274,4.945,0.307c0.625,1.003,0.419,2.279-0.348,3.201c-2.136,2.564-5.59,0.521-7.531-1.289
	c-2-1.864-3.896-4.408-6.557-5.325c-4.797-1.649-6.688,2.133-8.495,5.394c-1.641,2.957-6.61,2.379-5.725-0.966
	c0.236-0.894,1.705-1.7,3.158-0.817c0.015,0.01,0.031,0.008,0.043-0.006c0.012-0.012,0.015-0.029,0.004-0.043
	c-1.724-2.605-4.703-1.55-5.4,0.725c-0.447,1.453,0.021,3.086,1.162,4.246c2.404,2.447,6.794,1.305,8.285-1.85
	c0.111-0.236,0.224-0.479,0.336-0.72c0.008-0.017,0.022-0.022,0.038-0.021c0.018,0.004,0.027,0.017,0.028,0.031
	c0.066,1.363,0.535,2.699,1.551,3.406c1.452,1.01,3.771,0.555,4.381-1.24c0.545-1.609-0.254-2.658-1.268-3.085
	c-0.678-0.284-1.518-0.428-2.146,0.122c-0.504,0.439-0.754,1.141-0.161,2.162c0.008,0.016,0.022,0.021,0.038,0.018
	c0.017-0.004,0.025-0.021,0.024-0.037c-0.185-1.928,1.989-1.342,2.181,0.021c0.091,0.636-0.272,1.202-0.81,1.476
	c-1.326,0.676-2.729-0.724-3.073-1.949c-0.478-1.7,0.133-3.117,1.359-4.445c2.222-2.404,4.928-1.184,7.361,0.764
	c2.497,1.996,4.815,5.073,8.069,5.818c1.852,0.425,3.801,0.031,5.084-1.326c0.001,0,0.002-0.001,0.002-0.002l0.476-0.609
	c0-0.002,0.001-0.002,0.002-0.004c0.418-0.656,0.644-1.41,0.673-2.174c0.001-0.016,0.011-0.027,0.023-0.031
	c0.017-0.004,0.029,0,0.039,0.014c0.675,0.982,1.527,1.824,2.646,2.283c0.76,0.312,1.697,0.371,2.373-0.061
	c1.063-0.682,1.184-2.488,0.1-3.271c-0.809-0.584-1.878-0.188-1.923,0.863c-0.001,0.012,0.007,0.024,0.02,0.031
	c0.012,0.006,0.024,0.005,0.036-0.004c1.081-0.813,2.018,1.357,0.314,1.504c-0.635,0.057-1.327-0.266-1.833-0.602
	C192.888,53.178,192.367,52.118,191.728,50.913L191.728,50.913z M154.46,52.589c0.137-0.821-1.142-0.75-0.936,0.188
	c0.309,1.402,2.771,0.923,2.864-0.814c0.119-2.197-2.924-3.301-5.36,0.092c-0.771,1.073-1.437,2.368-2.729,3.561
	c-2.291,2.109-3.82,1.804-6.344,2.431c-3.271,0.813-3.111,5.108,0.69,4.261c0.017-0.004,0.031,0.004,0.039,0.021
	c0.006,0.015,0.002,0.03-0.011,0.041c-3.655,2.931-5.819-0.902-4.128-3.353c0.494-0.715,1.256-1.217,2.132-1.564
	c0.017-0.008,0.025-0.023,0.021-0.042c-0.007-0.019-0.022-0.027-0.04-0.022c-1.852,0.381-3.813,1.547-6.472,5.434
	c-3.789,5.541-7.517,2.303-5.195,0.092c0.01-0.01,0.024-0.014,0.039-0.006c0.014,0.007,0.021,0.021,0.019,0.035
	c-0.323,2.52,2.724,2.619,4.854-0.523c0.01-0.016,0.008-0.033-0.005-0.045c-0.012-0.012-0.03-0.014-0.045-0.002
	c-3.381,2.574-4.953-1.375-2.041-2.452c0.017-0.006,0.031,0,0.041,0.015c0.009,0.014,0.006,0.031-0.006,0.043
	c-1.604,1.478,0.42,3.6,2.567,0.963c3.642-4.475,5.329-4.711,7.806-4.98c0.014-0.001,0.025-0.012,0.029-0.025
	c0.004-0.015-0.002-0.029-0.017-0.037c-1.479-0.931-2.133-2.942-1.58-4.644c0.838-2.571,4.697-3.437,6-0.53
	c1.055,2.348-2.344,4.182-3.627,1.922c-0.008-0.014-0.005-0.029,0.007-0.041s0.028-0.015,0.043-0.004
	c1.585,0.95,2.798-1.26,1.28-1.914c-0.672-0.291-1.588,0.02-2.048,0.559c-0.624,0.729-0.709,1.85-0.286,2.695
	c0.961,1.922,3.115,1.899,4.816,0.801c2.035-1.314,2.957-3.688,4.789-5.229c3.25-2.73,6.798-0.714,6.584,2.371
	c-0.135,1.967-2.151,3.668-4.338,3.213c-1.029-0.217-1.707-1.121-1.765-2.046c-0.063-1.051,0.8-2.335,1.986-2.116
	c0.768,0.143,1.205,0.987,0.419,1.69c-0.011,0.011-0.026,0.013-0.04,0.006C154.465,52.618,154.458,52.604,154.46,52.589
	L154.46,52.589z M132.24,65.715c-1.035,0.896,0.812,1.76,1.218,0.475c0.005-0.015,0.018-0.022,0.03-0.023
	c0.017,0,0.028,0.008,0.033,0.021c0.316,0.781,1.437,0.631,1.57-0.627c0.001-0.017,0.012-0.027,0.027-0.031
	c0.015-0.002,0.029,0.006,0.036,0.02c0.562,1.146,2.253,0.223,2.026-0.926c-0.003-0.016,0.005-0.031,0.02-0.037
	c0.015-0.008,0.03-0.004,0.041,0.008c0.698,0.823,1.745-0.08,1.02-0.816c-1.099-1.108-1.076-3.334-0.246-4.625
	c0.009-0.014,0.008-0.029-0.004-0.041s-0.028-0.016-0.043-0.008C135.845,60.32,135.013,63.313,132.24,65.715L132.24,65.715z
	 M84.267,60.287c-0.938,1.293-2.65,3.158-4.188,3.252c-1.044,0.063-1.975-0.872-1.813-1.962c0.187-1.269,2.283-1.546,2.459-0.163
	c0.043,0.336-0.08,0.65-0.36,0.716c-0.013,0.004-0.024,0-0.033-0.01c-0.009-0.011-0.012-0.022-0.006-0.035
	c0.333-0.951-1.221-0.801-1.229,0.106c-0.004,0.447,0.356,0.91,1.079,0.834c1.395-0.147,3.089-1.75,3.83-3.047
	c0.007-0.014,0.006-0.028-0.003-0.041c-0.01-0.01-0.025-0.015-0.039-0.01c-0.87,0.344-3.135,0.992-3.525-1.338
	c-0.002-0.012,0.002-0.023,0.012-0.031c0.009-0.008,0.021-0.011,0.032-0.008c0.445,0.137,3.576,0.957,4.702-2.627
	c0.004-0.014,0.016-0.021,0.029-0.023s0.026,0.006,0.034,0.019c2.101,3.64,7,3.453,8.481,1.528c0.009-0.012,0.023-0.018,0.038-0.012
	c0.013,0.004,0.023,0.016,0.024,0.029c0.182,1.895-1.757,2.564-3.773,2.18c-0.014-0.002-0.026,0.002-0.035,0.016
	c-0.008,0.012-0.008,0.025,0,0.037c0.56,0.816,1.691,1.742,2.6,1.773c0.487,0.018,0.718-0.313,0.702-0.611
	c-0.031-0.604-1.062-0.637-0.837-0.03c0.006,0.012,0.003,0.024-0.006,0.034s-0.021,0.014-0.033,0.011
	c-0.178-0.041-0.262-0.24-0.242-0.461c0.081-0.938,1.499-0.853,1.659-0.009c0.138,0.726-0.463,1.4-1.166,1.406
	c-0.973,0.012-2.091-1.021-2.776-1.828c-0.009-0.012-0.024-0.016-0.038-0.01c-0.014,0.004-0.023,0.019-0.023,0.031
	c-0.017,1.438-1.757,1.477-2.508,0.105c-0.007-0.014-0.019-0.021-0.033-0.019c-0.014,0-0.024,0.011-0.029,0.022
	c-0.578,1.684-2.624,1.517-2.922,0.185c-0.003-0.014-0.014-0.022-0.026-0.026C84.289,60.271,84.275,60.275,84.267,60.287
	L84.267,60.287z M61.752,50.913c1.125-2.121,3.582-2.787,5.594-2.185c1.657,0.496,2.879,1.898,2.7,3.609
	c-0.107,1.023-0.75,2.02-1.98,2.535c-1.334,0.561-2.929,0.063-3.165-1.253c-0.234-1.317,1.411-2.315,2.52-1.274
	c0.011,0.01,0.014,0.025,0.007,0.039c-0.007,0.016-0.021,0.021-0.037,0.02c-0.945-0.151-1.021,1.043-0.17,1.259
	c1.252,0.313,2.179-1.162,1.649-2.187c-0.975-1.881-3.963-1.274-4.946,0.307c-0.624,1.003-0.419,2.279,0.349,3.201
	c2.135,2.564,5.589,0.521,7.53-1.289c2.001-1.864,3.894-4.408,6.556-5.325c4.797-1.649,6.688,2.133,8.496,5.394
	c1.641,2.957,6.61,2.379,5.725-0.966c-0.237-0.894-1.706-1.7-3.16-0.817c-0.015,0.01-0.031,0.008-0.042-0.006
	c-0.012-0.012-0.014-0.029-0.004-0.043c1.724-2.605,4.704-1.55,5.401,0.725c0.447,1.453-0.02,3.086-1.162,4.246
	c-2.404,2.447-6.795,1.305-8.285-1.85c-0.112-0.236-0.224-0.479-0.337-0.72c-0.007-0.017-0.021-0.022-0.037-0.021
	c-0.017,0.004-0.027,0.017-0.028,0.031c-0.066,1.363-0.535,2.699-1.551,3.406c-1.452,1.01-3.772,0.555-4.38-1.24
	c-0.546-1.609,0.254-2.658,1.267-3.085c0.678-0.284,1.518-0.428,2.148,0.122c0.504,0.439,0.752,1.141,0.161,2.162
	c-0.008,0.016-0.023,0.021-0.04,0.016c-0.016-0.004-0.024-0.02-0.023-0.035c0.184-1.928-1.989-1.342-2.181,0.021
	c-0.09,0.636,0.272,1.202,0.81,1.476c1.326,0.676,2.729-0.724,3.074-1.949c0.477-1.7-0.133-3.117-1.359-4.445
	c-2.222-2.404-4.929-1.184-7.362,0.764c-2.497,1.996-4.815,5.073-8.069,5.818c-1.852,0.425-3.801,0.031-5.084-1.326
	c-0.001,0-0.001-0.001-0.002-0.002l-0.475-0.609c0-0.002-0.001-0.002-0.002-0.004c-0.418-0.656-0.644-1.41-0.673-2.174
	c-0.001-0.016-0.01-0.027-0.024-0.031c-0.016-0.004-0.029,0-0.038,0.014c-0.675,0.982-1.528,1.824-2.647,2.283
	c-0.76,0.312-1.698,0.371-2.373-0.061c-1.063-0.682-1.184-2.488-0.101-3.271c0.81-0.584,1.879-0.188,1.924,0.863
	c0,0.014-0.006,0.024-0.02,0.031c-0.012,0.006-0.025,0.005-0.036-0.004c-1.082-0.813-2.018,1.357-0.315,1.504
	c0.636,0.057,1.328-0.266,1.833-0.602C60.591,53.178,61.113,52.118,61.752,50.913L61.752,50.913z M99.019,52.589
	c-0.135-0.821,1.143-0.75,0.937,0.188c-0.309,1.402-2.771,0.923-2.864-0.814c-0.119-2.197,2.924-3.301,5.36,0.092
	c0.771,1.073,1.437,2.368,2.729,3.561c2.291,2.109,3.819,1.804,6.344,2.431c3.271,0.813,3.11,5.108-0.69,4.261
	c-0.017-0.004-0.033,0.004-0.039,0.021c-0.007,0.015-0.003,0.03,0.01,0.041c3.656,2.931,5.82-0.902,4.128-3.353
	c-0.493-0.715-1.255-1.217-2.131-1.564c-0.017-0.008-0.025-0.023-0.021-0.042c0.005-0.019,0.022-0.027,0.04-0.022
	c1.851,0.381,3.813,1.547,6.472,5.434c3.789,5.541,7.517,2.303,5.195,0.092c-0.011-0.01-0.025-0.014-0.038-0.006
	c-0.015,0.007-0.021,0.021-0.02,0.035c0.323,2.52-2.723,2.619-4.853-0.523c-0.011-0.016-0.009-0.033,0.004-0.045
	c0.012-0.012,0.03-0.014,0.045-0.002c3.381,2.574,4.953-1.375,2.042-2.452c-0.017-0.006-0.032,0-0.041,0.015
	c-0.009,0.014-0.007,0.031,0.005,0.043c1.604,1.478-0.42,3.6-2.567,0.963c-3.642-4.475-5.329-4.711-7.805-4.98
	c-0.015-0.001-0.026-0.012-0.03-0.025c-0.003-0.015,0.002-0.029,0.016-0.037c1.48-0.931,2.132-2.942,1.58-4.644
	c-0.837-2.571-4.697-3.437-5.999-0.53c-1.055,2.348,2.343,4.182,3.626,1.922c0.007-0.014,0.005-0.029-0.007-0.041
	c-0.011-0.012-0.027-0.015-0.042-0.004c-1.585,0.95-2.798-1.26-1.281-1.914c0.672-0.291,1.588,0.02,2.048,0.559
	c0.624,0.729,0.709,1.85,0.286,2.695c-0.961,1.922-3.116,1.899-4.817,0.801c-2.035-1.314-2.956-3.688-4.788-5.229
	c-3.25-2.73-6.798-0.714-6.585,2.371c0.136,1.967,2.152,3.668,4.338,3.213c1.029-0.217,1.707-1.121,1.765-2.046
	c0.063-1.051-0.8-2.335-1.987-2.116c-0.768,0.143-1.204,0.987-0.418,1.69c0.011,0.011,0.025,0.013,0.039,0.006
	C99.015,52.618,99.021,52.604,99.019,52.589L99.019,52.589z M121.239,65.715c1.037,0.896-0.81,1.76-1.216,0.475
	c-0.004-0.015-0.017-0.022-0.031-0.023c-0.016,0-0.027,0.008-0.033,0.021c-0.315,0.781-1.436,0.631-1.569-0.627
	c-0.001-0.017-0.013-0.027-0.028-0.031c-0.015-0.002-0.029,0.006-0.036,0.02c-0.562,1.146-2.253,0.223-2.026-0.926
	c0.003-0.016-0.004-0.031-0.02-0.038c-0.014-0.007-0.03-0.003-0.042,0.009c-0.697,0.823-1.745-0.08-1.019-0.816
	c1.099-1.108,1.075-3.334,0.246-4.625c-0.008-0.014-0.007-0.029,0.004-0.041s0.028-0.016,0.042-0.008
	C117.634,60.32,118.466,63.313,121.239,65.715L121.239,65.715z M123.822,19.57c-1.812-0.484-3.624-0.969-5.435-1.454
	c-0.292-0.078-0.507-0.274-0.612-0.557c-0.124-0.335-0.248-0.671-0.372-1.006c-0.091-0.246-0.074-0.492,0.045-0.726
	c0.121-0.232,0.313-0.387,0.566-0.455c0.272-0.072,0.544-0.145,0.815-0.218c0.311-0.083,0.616-0.005,0.85,0.215
	c1.416,1.338,2.831,2.676,4.246,4.013c0.037,0.036,0.045,0.09,0.021,0.135C123.922,19.562,123.872,19.583,123.822,19.57
	L123.822,19.57z M125.094,18.931c-1.547-1.838-3.094-3.677-4.641-5.515c-0.183-0.216-0.249-0.478-0.194-0.754
	c0.094-0.476,0.188-0.951,0.284-1.426c0.054-0.272,0.211-0.485,0.456-0.616c0.245-0.132,0.508-0.146,0.765-0.041
	c0.392,0.159,0.784,0.318,1.176,0.478c0.274,0.111,0.46,0.326,0.533,0.612c0.604,2.389,1.209,4.776,1.813,7.164
	c0.013,0.051-0.011,0.102-0.057,0.125C125.183,18.982,125.127,18.971,125.094,18.931L125.094,18.931z M126.632,18.75l-2.356-10.462
	c-0.063-0.278-0.001-0.542,0.179-0.764l1.587-1.961c0.176-0.218,0.418-0.334,0.698-0.334c0.281,0,0.523,0.116,0.699,0.334
	l1.587,1.961c0.18,0.221,0.241,0.486,0.18,0.764l-2.357,10.462c-0.011,0.051-0.056,0.086-0.108,0.086
	C126.688,18.836,126.644,18.8,126.632,18.75L126.632,18.75z M129.658,19.57c1.812-0.484,3.622-0.969,5.436-1.454
	c0.291-0.078,0.506-0.274,0.611-0.557c0.123-0.335,0.248-0.671,0.371-1.006c0.092-0.246,0.075-0.493-0.046-0.725
	c-0.12-0.233-0.313-0.388-0.565-0.456c-0.271-0.072-0.544-0.145-0.814-0.218c-0.311-0.083-0.616-0.005-0.851,0.215
	c-1.415,1.338-2.831,2.676-4.246,4.014c-0.037,0.035-0.046,0.089-0.021,0.134C129.558,19.562,129.609,19.583,129.658,19.57
	L129.658,19.57z M128.385,18.931c1.548-1.838,3.095-3.676,4.642-5.514c0.183-0.216,0.249-0.478,0.193-0.755
	c-0.094-0.475-0.189-0.951-0.283-1.426c-0.055-0.272-0.211-0.485-0.456-0.617c-0.245-0.131-0.508-0.145-0.765-0.041
	c-0.394,0.16-0.785,0.319-1.177,0.478c-0.272,0.112-0.46,0.326-0.532,0.613c-0.604,2.388-1.209,4.775-1.813,7.164
	c-0.013,0.05,0.012,0.102,0.057,0.125C128.296,18.982,128.352,18.971,128.385,18.931L128.385,18.931z M169.212,7.778
	c0.938-1.292,2.65-3.159,4.188-3.251c1.045-0.063,1.976,0.873,1.814,1.962c-0.188,1.268-2.283,1.545-2.459,0.163
	c-0.044-0.336,0.08-0.652,0.358-0.716c0.014-0.003,0.025,0.001,0.033,0.011c0.01,0.009,0.013,0.022,0.008,0.034
	c-0.334,0.951,1.22,0.8,1.229-0.108c0.005-0.446-0.355-0.909-1.078-0.833c-1.395,0.148-3.09,1.75-3.83,3.048
	c-0.008,0.013-0.006,0.028,0.004,0.04c0.01,0.012,0.025,0.015,0.039,0.009c0.869-0.342,3.135-0.991,3.525,1.338
	c0.002,0.012-0.002,0.024-0.013,0.032c-0.01,0.008-0.021,0.011-0.032,0.007c-0.445-0.137-3.576-0.957-4.702,2.627
	c-0.005,0.013-0.016,0.022-0.028,0.024c-0.015,0.001-0.026-0.005-0.034-0.017c-2.101-3.64-7.001-3.454-8.481-1.529
	c-0.009,0.012-0.022,0.017-0.037,0.012c-0.014-0.004-0.022-0.016-0.024-0.03c-0.183-1.896,1.759-2.566,3.773-2.18
	c0.014,0.002,0.027-0.003,0.035-0.015c0.008-0.012,0.008-0.027,0-0.039c-0.562-0.816-1.691-1.741-2.601-1.772
	c-0.487-0.018-0.719,0.313-0.703,0.612c0.032,0.604,1.063,0.636,0.838,0.031c-0.006-0.012-0.004-0.025,0.007-0.035
	c0.008-0.01,0.021-0.014,0.033-0.011c0.176,0.041,0.26,0.241,0.24,0.461c-0.081,0.938-1.499,0.852-1.659,0.008
	c-0.138-0.725,0.463-1.399,1.166-1.407c0.973-0.011,2.092,1.021,2.775,1.829c0.01,0.011,0.024,0.015,0.039,0.01
	c0.014-0.005,0.021-0.018,0.022-0.032c0.017-1.436,1.757-1.476,2.508-0.104c0.007,0.012,0.019,0.019,0.031,0.018
	c0.016-0.001,0.025-0.01,0.03-0.023c0.578-1.684,2.624-1.516,2.922-0.184c0.003,0.013,0.014,0.023,0.026,0.026
	S169.205,7.79,169.212,7.778L169.212,7.778z M191.728,17.153c-1.126,2.121-3.582,2.786-5.594,2.184
	c-1.658-0.497-2.879-1.898-2.7-3.61c0.107-1.024,0.75-2.019,1.979-2.535c1.335-0.561,2.93-0.063,3.165,1.252
	c0.234,1.318-1.411,2.315-2.52,1.275c-0.012-0.01-0.014-0.026-0.008-0.04c0.007-0.014,0.021-0.021,0.037-0.019
	c0.945,0.152,1.021-1.043,0.17-1.258c-1.252-0.314-2.179,1.162-1.648,2.187c0.975,1.88,3.963,1.274,4.945-0.307
	c0.625-1.003,0.419-2.28-0.348-3.202c-2.136-2.564-5.59-0.521-7.531,1.289c-2,1.865-3.896,4.409-6.557,5.326
	c-4.797,1.651-6.688-2.131-8.495-5.392c-1.641-2.957-6.61-2.378-5.725,0.965c0.236,0.892,1.705,1.702,3.158,0.818
	c0.015-0.009,0.032-0.006,0.043,0.005c0.012,0.012,0.015,0.03,0.004,0.043c-1.724,2.607-4.703,1.549-5.4-0.723
	c-0.447-1.455,0.021-3.086,1.162-4.248c2.404-2.446,6.794-1.304,8.285,1.85c0.111,0.237,0.224,0.478,0.336,0.72
	c0.008,0.015,0.022,0.022,0.038,0.02c0.018-0.003,0.027-0.017,0.028-0.033c0.066-1.362,0.535-2.699,1.551-3.405
	c1.452-1.01,3.771-0.555,4.381,1.241c0.545,1.609-0.254,2.658-1.268,3.084c-0.678,0.285-1.518,0.428-2.146-0.122
	c-0.504-0.44-0.754-1.141-0.161-2.162c0.008-0.015,0.022-0.021,0.038-0.016c0.017,0.005,0.025,0.02,0.024,0.037
	c-0.185,1.928,1.989,1.342,2.181-0.021c0.091-0.635-0.272-1.202-0.81-1.475c-1.326-0.675-2.729,0.722-3.073,1.948
	c-0.478,1.701,0.133,3.119,1.359,4.446c2.222,2.405,4.928,1.184,7.361-0.762c2.497-1.997,4.815-5.074,8.069-5.819
	c1.852-0.425,3.801-0.031,5.084,1.326c0.001,0.001,0.002,0.001,0.002,0.002l0.476,0.61c0,0.001,0.001,0.001,0.002,0.002
	c0.418,0.656,0.644,1.411,0.673,2.174c0.001,0.015,0.011,0.028,0.023,0.032c0.017,0.004,0.029-0.001,0.039-0.014
	c0.675-0.984,1.527-1.825,2.646-2.283c0.76-0.311,1.697-0.372,2.373,0.06c1.063,0.682,1.184,2.489,0.1,3.271
	c-0.809,0.584-1.878,0.189-1.923-0.862c-0.001-0.014,0.007-0.026,0.02-0.032c0.012-0.007,0.024-0.006,0.036,0.002
	c1.081,0.813,2.018-1.357,0.314-1.503c-0.635-0.055-1.327,0.265-1.833,0.603C192.888,14.889,192.367,15.947,191.728,17.153
	L191.728,17.153z M154.46,15.477c0.137,0.822-1.142,0.751-0.936-0.189c0.309-1.403,2.771-0.921,2.864,0.815
	c0.119,2.197-2.924,3.301-5.36-0.091c-0.771-1.074-1.437-2.369-2.729-3.561c-2.291-2.11-3.82-1.803-6.344-2.431
	c-3.271-0.813-3.111-5.108,0.69-4.26c0.017,0.003,0.031-0.004,0.039-0.019c0.006-0.015,0.002-0.032-0.011-0.042
	c-3.655-2.931-5.819,0.902-4.128,3.354c0.494,0.714,1.256,1.216,2.132,1.564c0.017,0.007,0.026,0.025,0.021,0.043
	c-0.007,0.017-0.023,0.027-0.04,0.023c-1.852-0.381-3.813-1.547-6.472-5.435c-3.789-5.54-7.517-2.302-5.195-0.091
	c0.01,0.01,0.024,0.012,0.039,0.006c0.014-0.006,0.021-0.021,0.019-0.036c-0.323-2.519,2.724-2.619,4.854,0.524
	c0.01,0.014,0.008,0.032-0.005,0.044c-0.012,0.012-0.03,0.013-0.045,0.002c-3.381-2.576-4.953,1.374-2.041,2.452
	c0.016,0.006,0.031,0,0.041-0.014c0.009-0.014,0.006-0.033-0.006-0.044c-1.604-1.476,0.42-3.599,2.567-0.961
	c3.642,4.474,5.329,4.71,7.806,4.98c0.014,0.001,0.025,0.012,0.029,0.026c0.004,0.015-0.002,0.029-0.017,0.037
	c-1.479,0.931-2.133,2.942-1.58,4.643c0.838,2.573,4.697,3.436,6,0.532c1.055-2.349-2.344-4.181-3.627-1.923
	c-0.008,0.014-0.005,0.031,0.007,0.042c0.012,0.011,0.028,0.013,0.043,0.005c1.585-0.951,2.798,1.258,1.28,1.914
	c-0.672,0.29-1.588-0.021-2.048-0.559c-0.624-0.729-0.709-1.851-0.286-2.696c0.961-1.922,3.115-1.901,4.816-0.801
	c2.035,1.315,2.957,3.688,4.789,5.229c3.25,2.731,6.798,0.712,6.584-2.372c-0.135-1.966-2.151-3.667-4.338-3.211
	c-1.029,0.215-1.707,1.121-1.765,2.045c-0.063,1.049,0.8,2.334,1.986,2.116c0.768-0.142,1.205-0.988,0.419-1.691
	c-0.011-0.01-0.026-0.011-0.04-0.004C154.465,15.448,154.458,15.462,154.46,15.477L154.46,15.477z M132.24,2.351
	c-1.035-0.897,0.812-1.758,1.218-0.475c0.005,0.014,0.018,0.023,0.03,0.024c0.017,0,0.028-0.008,0.033-0.021
	c0.316-0.781,1.437-0.63,1.57,0.627c0.001,0.016,0.012,0.027,0.027,0.03c0.015,0.003,0.029-0.005,0.036-0.019
	c0.562-1.147,2.253-0.222,2.026,0.926c-0.003,0.016,0.005,0.031,0.02,0.038s0.03,0.003,0.041-0.009
	c0.698-0.823,1.745,0.081,1.02,0.816c-1.099,1.11-1.076,3.334-0.246,4.625c0.009,0.014,0.008,0.031-0.004,0.042
	c-0.012,0.011-0.028,0.014-0.043,0.006C135.845,7.744,135.013,4.752,132.24,2.351L132.24,2.351z M84.267,7.778
	c-0.938-1.292-2.65-3.159-4.188-3.251c-1.044-0.063-1.975,0.873-1.813,1.962c0.187,1.268,2.283,1.545,2.459,0.163
	c0.043-0.336-0.08-0.652-0.36-0.716c-0.013-0.003-0.024,0.001-0.033,0.011c-0.01,0.009-0.012,0.022-0.006,0.034
	c0.333,0.951-1.221,0.8-1.229-0.108c-0.004-0.446,0.356-0.909,1.079-0.833c1.395,0.148,3.089,1.75,3.83,3.048
	C84.011,8.1,84.01,8.116,84,8.127c-0.009,0.011-0.024,0.015-0.039,0.009c-0.87-0.342-3.135-0.991-3.525,1.338
	c-0.002,0.012,0.002,0.023,0.011,0.032c0.01,0.008,0.021,0.011,0.033,0.007c0.445-0.137,3.576-0.957,4.702,2.627
	c0.004,0.013,0.015,0.022,0.029,0.024c0.014,0.001,0.026-0.005,0.034-0.017c2.101-3.64,7-3.454,8.481-1.529
	c0.009,0.012,0.023,0.016,0.038,0.012c0.013-0.004,0.023-0.016,0.024-0.03c0.182-1.896-1.758-2.566-3.773-2.18
	c-0.014,0.002-0.027-0.003-0.035-0.015c-0.008-0.012-0.008-0.027,0-0.039c0.56-0.816,1.691-1.741,2.6-1.772
	c0.487-0.018,0.718,0.313,0.701,0.612c-0.03,0.604-1.061,0.636-0.836,0.031c0.006-0.012,0.002-0.025-0.006-0.035
	c-0.009-0.01-0.021-0.014-0.034-0.011c-0.177,0.041-0.261,0.241-0.241,0.461c0.081,0.938,1.499,0.852,1.658,0.008
	c0.139-0.725-0.462-1.399-1.165-1.407c-0.973-0.011-2.091,1.021-2.776,1.829c-0.009,0.011-0.024,0.015-0.038,0.01
	C89.829,8.088,89.82,8.075,89.82,8.06c-0.017-1.436-1.757-1.476-2.508-0.104c-0.007,0.012-0.019,0.019-0.033,0.018
	c-0.014-0.001-0.024-0.01-0.029-0.023c-0.578-1.684-2.624-1.516-2.922-0.184c-0.003,0.013-0.014,0.023-0.026,0.026
	C84.289,7.795,84.275,7.79,84.267,7.778L84.267,7.778z M61.752,17.153c1.125,2.121,3.582,2.786,5.594,2.184
	c1.657-0.497,2.879-1.898,2.7-3.61c-0.107-1.024-0.75-2.019-1.98-2.535c-1.334-0.561-2.929-0.063-3.165,1.252
	c-0.234,1.318,1.411,2.315,2.52,1.275c0.011-0.01,0.014-0.026,0.007-0.04c-0.007-0.014-0.021-0.021-0.037-0.019
	c-0.945,0.152-1.021-1.043-0.17-1.258c1.252-0.314,2.179,1.162,1.649,2.187c-0.975,1.88-3.963,1.274-4.946-0.307
	c-0.624-1.003-0.419-2.28,0.349-3.202c2.135-2.564,5.589-0.521,7.53,1.289c2.001,1.865,3.894,4.409,6.556,5.326
	c4.797,1.651,6.688-2.131,8.496-5.392c1.641-2.957,6.61-2.378,5.725,0.965c-0.237,0.892-1.706,1.702-3.16,0.818
	c-0.015-0.009-0.032-0.006-0.042,0.006c-0.012,0.012-0.014,0.029-0.004,0.042c1.724,2.607,4.704,1.549,5.401-0.723
	c0.447-1.455-0.02-3.086-1.162-4.248c-2.404-2.446-6.795-1.304-8.285,1.85c-0.112,0.237-0.224,0.478-0.337,0.72
	c-0.007,0.015-0.021,0.022-0.037,0.02c-0.017-0.003-0.027-0.017-0.028-0.033c-0.066-1.362-0.535-2.699-1.551-3.405
	c-1.452-1.01-3.772-0.555-4.38,1.241c-0.546,1.609,0.254,2.658,1.267,3.084c0.678,0.285,1.518,0.428,2.148-0.122
	c0.504-0.44,0.752-1.141,0.161-2.162c-0.008-0.015-0.024-0.021-0.041-0.016c-0.016,0.004-0.024,0.02-0.022,0.036
	c0.184,1.928-1.989,1.342-2.181-0.021c-0.09-0.635,0.272-1.202,0.81-1.475c1.326-0.675,2.729,0.722,3.074,1.948
	c0.477,1.701-0.133,3.119-1.359,4.446c-2.222,2.405-4.929,1.184-7.362-0.762c-2.497-1.997-4.815-5.074-8.069-5.819
	c-1.852-0.425-3.801-0.031-5.084,1.326c-0.001,0.001-0.001,0.001-0.002,0.002l-0.475,0.61c0,0.001-0.001,0.001-0.002,0.002
	c-0.418,0.656-0.644,1.411-0.673,2.174c-0.001,0.016-0.01,0.028-0.024,0.032c-0.015,0.004-0.029-0.001-0.038-0.014
	c-0.675-0.983-1.528-1.825-2.647-2.283c-0.76-0.311-1.698-0.372-2.373,0.06c-1.063,0.682-1.184,2.489-0.101,3.271
	c0.81,0.584,1.879,0.189,1.924-0.862c0-0.014-0.006-0.026-0.02-0.032c-0.012-0.007-0.025-0.006-0.036,0.002
	c-1.082,0.813-2.018-1.357-0.315-1.503c0.636-0.055,1.328,0.265,1.833,0.603C60.591,14.889,61.113,15.947,61.752,17.153
	L61.752,17.153z M99.019,15.477c-0.135,0.822,1.143,0.751,0.937-0.189c-0.309-1.403-2.771-0.921-2.864,0.815
	c-0.119,2.197,2.924,3.301,5.36-0.091c0.771-1.074,1.437-2.369,2.729-3.561c2.291-2.11,3.819-1.803,6.344-2.431
	c3.271-0.813,3.11-5.108-0.69-4.26c-0.017,0.003-0.032-0.004-0.039-0.021c-0.007-0.014-0.003-0.031,0.01-0.042
	c3.656-2.931,5.82,0.902,4.128,3.354c-0.493,0.714-1.255,1.216-2.131,1.563c-0.017,0.007-0.026,0.025-0.021,0.042
	c0.006,0.017,0.022,0.027,0.04,0.023c1.851-0.381,3.813-1.547,6.472-5.435c3.789-5.54,7.517-2.302,5.195-0.091
	c-0.011,0.01-0.025,0.012-0.038,0.006c-0.015-0.007-0.021-0.021-0.02-0.036c0.323-2.519-2.723-2.619-4.853,0.524
	c-0.011,0.014-0.009,0.032,0.004,0.044c0.012,0.012,0.03,0.013,0.045,0.003c3.381-2.576,4.953,1.374,2.042,2.452
	c-0.017,0.006-0.032,0-0.041-0.014c-0.009-0.014-0.007-0.033,0.005-0.044c1.604-1.476-0.42-3.599-2.567-0.961
	c-3.642,4.474-5.329,4.71-7.805,4.98c-0.015,0.001-0.026,0.012-0.03,0.026c-0.003,0.015,0.002,0.029,0.016,0.037
	c1.48,0.931,2.132,2.942,1.58,4.643c-0.837,2.573-4.697,3.436-5.999,0.532c-1.055-2.349,2.343-4.181,3.626-1.923
	c0.007,0.014,0.005,0.031-0.007,0.042c-0.011,0.011-0.027,0.013-0.042,0.005c-1.585-0.951-2.798,1.258-1.281,1.914
	c0.672,0.29,1.588-0.021,2.048-0.559c0.624-0.729,0.709-1.851,0.286-2.696c-0.961-1.922-3.116-1.901-4.817-0.801
	c-2.035,1.315-2.956,3.688-4.788,5.229c-3.25,2.731-6.798,0.712-6.585-2.372c0.136-1.966,2.152-3.667,4.338-3.211
	c1.029,0.215,1.707,1.121,1.765,2.045c0.063,1.049-0.8,2.334-1.987,2.116c-0.768-0.142-1.204-0.988-0.418-1.691
	c0.011-0.01,0.025-0.011,0.04-0.004C99.015,15.448,99.021,15.462,99.019,15.477L99.019,15.477z M121.239,2.351
	c1.037-0.897-0.81-1.758-1.216-0.475c-0.004,0.014-0.017,0.023-0.031,0.024c-0.016,0-0.027-0.008-0.033-0.021
	c-0.315-0.781-1.436-0.63-1.569,0.627c-0.001,0.016-0.013,0.028-0.028,0.03c-0.015,0.003-0.029-0.005-0.036-0.019
	c-0.562-1.146-2.253-0.222-2.026,0.926c0.003,0.016-0.004,0.031-0.02,0.038c-0.014,0.007-0.03,0.003-0.042-0.009
	c-0.697-0.823-1.745,0.081-1.019,0.816c1.099,1.11,1.075,3.334,0.246,4.625c-0.008,0.014-0.007,0.031,0.004,0.042
	c0.011,0.011,0.028,0.014,0.042,0.006C117.634,7.744,118.466,4.752,121.239,2.351L121.239,2.351z"/>
<path fill="#FFFFFF" d="M44.561,55.725l0.029,0.012c0.277,0.111,0.538,0.252,0.777,0.418h1.591c-0.061-0.146-0.129-0.291-0.206-0.43
	H44.561L44.561,55.725z M45.88,56.583c0.133,0.134,0.254,0.276,0.363,0.431h0.956c-0.022-0.146-0.055-0.289-0.095-0.431H45.88
	L45.88,56.583z M46.501,57.441c0.068,0.139,0.127,0.281,0.175,0.431h0.546c0.015-0.146,0.021-0.287,0.016-0.431H46.501
	L46.501,57.441z M46.78,58.301c0.023,0.141,0.036,0.284,0.039,0.43h0.202l0.009-0.023c0.051-0.135,0.091-0.27,0.122-0.404H46.78
	V58.301z M46.797,59.16c-0.002,0.02-0.004,0.037-0.007,0.059c0.011-0.021,0.021-0.039,0.031-0.059H46.797L46.797,59.16z
	 M46.484,55.294c-0.104-0.147-0.218-0.292-0.34-0.431h-3.42c-0.024,0.146-0.06,0.289-0.104,0.431H46.484L46.484,55.294z
	 M45.713,54.436c-0.177-0.156-0.364-0.299-0.56-0.43h-2.41c0.019,0.143,0.025,0.285,0.022,0.43H45.713L45.713,54.436z
	 M44.354,53.576c-0.595-0.249-1.226-0.364-1.832-0.303c0.048,0.1,0.088,0.199,0.122,0.303H44.354L44.354,53.576z M42.618,12.771
	c0.045,0.141,0.081,0.284,0.104,0.43h3.42c0.122-0.137,0.236-0.281,0.34-0.43H42.618L42.618,12.771z M42.766,13.63
	c0.003,0.144-0.004,0.288-0.022,0.43h2.41c0.195-0.129,0.383-0.273,0.56-0.43H42.766L42.766,13.63z M42.646,14.489
	c-0.034,0.103-0.074,0.203-0.123,0.301c0.606,0.063,1.237-0.052,1.832-0.301H42.646L42.646,14.489z M46.752,12.342
	c0.077-0.14,0.146-0.283,0.206-0.43h-1.59c-0.25,0.173-0.522,0.318-0.808,0.43H46.752L46.752,12.342z M47.105,11.483
	c0.04-0.141,0.071-0.285,0.095-0.43h-0.954c-0.109,0.153-0.23,0.296-0.363,0.43H47.105L47.105,11.483z M47.238,10.624
	c0.005-0.143,0-0.286-0.015-0.43h-0.547c-0.047,0.146-0.104,0.29-0.173,0.43H47.238L47.238,10.624z M47.151,9.765
	c-0.031-0.135-0.071-0.27-0.122-0.405L47.02,9.335h-0.203c-0.003,0.145-0.016,0.288-0.04,0.43H47.151L47.151,9.765z M46.822,8.906
	c-0.011-0.02-0.021-0.04-0.031-0.059c0.002,0.02,0.004,0.04,0.007,0.059H46.822L46.822,8.906z M208.919,12.342l-0.026-0.01
	c-0.278-0.111-0.54-0.252-0.78-0.419h-1.592c0.062,0.147,0.13,0.29,0.207,0.43h2.191V12.342z M207.599,11.483
	c-0.133-0.134-0.254-0.277-0.362-0.43h-0.956c0.021,0.145,0.055,0.289,0.095,0.43H207.599L207.599,11.483z M206.978,10.624
	c-0.067-0.138-0.127-0.282-0.174-0.43h-0.547c-0.015,0.144-0.021,0.287-0.016,0.43H206.978L206.978,10.624z M206.701,9.765
	c-0.023-0.14-0.037-0.283-0.039-0.43h-0.202l-0.009,0.024c-0.052,0.135-0.092,0.271-0.122,0.405L206.701,9.765L206.701,9.765z
	 M206.683,8.906c0.002-0.02,0.004-0.04,0.007-0.059c-0.011,0.02-0.021,0.039-0.031,0.059H206.683L206.683,8.906z M206.996,12.771
	c0.104,0.149,0.219,0.292,0.34,0.43h3.42c0.024-0.146,0.061-0.289,0.104-0.43H206.996L206.996,12.771z M207.767,13.63
	c0.176,0.156,0.363,0.3,0.56,0.43h2.41c-0.02-0.142-0.025-0.286-0.022-0.43H207.767L207.767,13.63z M209.126,14.489
	c0.594,0.249,1.225,0.364,1.83,0.301c-0.049-0.098-0.089-0.198-0.122-0.301H209.126L209.126,14.489z M210.861,55.294
	c-0.045-0.142-0.08-0.284-0.104-0.431h-3.42c-0.121,0.139-0.234,0.281-0.34,0.431H210.861L210.861,55.294z M210.714,54.436
	c-0.004-0.145,0.003-0.287,0.021-0.43h-2.41c-0.195,0.131-0.384,0.273-0.56,0.43H210.714L210.714,54.436z M210.834,53.576
	c0.033-0.104,0.074-0.203,0.122-0.301c-0.605-0.063-1.236,0.052-1.831,0.301H210.834L210.834,53.576z M206.728,55.725
	c-0.078,0.139-0.146,0.282-0.207,0.43h1.591c0.25-0.174,0.522-0.317,0.807-0.43H206.728L206.728,55.725z M206.375,56.583
	c-0.04,0.142-0.072,0.284-0.095,0.431h0.953c0.109-0.154,0.23-0.298,0.363-0.431H206.375L206.375,56.583z M206.242,57.441
	c-0.005,0.144,0.001,0.285,0.016,0.431h0.547c0.047-0.146,0.104-0.291,0.173-0.431H206.242L206.242,57.441z M206.329,58.301
	c0.031,0.137,0.071,0.271,0.122,0.405l0.01,0.024h0.203c0.002-0.145,0.016-0.289,0.039-0.431L206.329,58.301L206.329,58.301z
	 M206.658,59.16c0.011,0.02,0.021,0.039,0.031,0.059c-0.003-0.021-0.005-0.039-0.007-0.059H206.658L206.658,59.16z M236.035,43.697
	c-0.066,0.142-0.13,0.283-0.187,0.43h0.074c0.1-0.089,0.211-0.167,0.33-0.23l-0.07-0.199H236.035L236.035,43.697z M242.355,39.4
	c0.244,0.084,0.474,0.226,0.668,0.425c0.013,0.002,0.023,0.004,0.035,0.006h0.447c-0.09-0.123-0.162-0.265-0.228-0.431H242.355
	L242.355,39.4z M243.89,40.262c0.055,0.051,0.105,0.106,0.154,0.166c0.153,0.008,0.305,0.028,0.453,0.061
	c-0.197-0.072-0.361-0.146-0.502-0.227H243.89L243.89,40.262z M243.851,27.375c-0.236,0.211-0.521,0.346-0.828,0.4
	c-0.01,0.01-0.02,0.02-0.028,0.029h0.477c0.109-0.166,0.248-0.307,0.434-0.429H243.851L243.851,27.375z M242.259,28.234
	c0.332,0.037,0.621,0.192,0.828,0.429h0.039c0.043-0.156,0.086-0.299,0.133-0.429H242.259L242.259,28.234z M216.461,47.992
	c-0.536,0.135-1.068,0.277-1.599,0.43h2.325c0.117-0.148,0.242-0.292,0.375-0.43H216.461L216.461,47.992z M213.451,48.852
	c-0.429,0.139-0.854,0.28-1.274,0.43h4.46c0.075-0.146,0.158-0.29,0.246-0.43H213.451L213.451,48.852z M211.011,49.711
	c-0.18,0.068-0.359,0.141-0.538,0.211c0.542,0.003,1.073,0.077,1.583,0.219h4.236c0.043-0.145,0.092-0.287,0.147-0.43H211.011
	L211.011,49.711z M213.167,50.568c0.248,0.127,0.488,0.271,0.721,0.431h2.238c0.014-0.144,0.035-0.287,0.063-0.431H213.167
	L213.167,50.568z M214.436,51.43c0.153,0.135,0.302,0.277,0.442,0.43l0,0h1.24c-0.013-0.145-0.018-0.287-0.017-0.43H214.436
	L214.436,51.43z M215.21,52.288c0.088,0.137,0.165,0.28,0.229,0.431h0.825c-0.037-0.144-0.067-0.287-0.092-0.431H215.21
	L215.21,52.288z M215.59,53.146c0.038,0.142,0.064,0.285,0.081,0.43h0.24c0.102-0.137,0.188-0.28,0.259-0.43H215.59L215.59,53.146z
	 M225.91,50.025c0.146,0.025,0.284,0.064,0.42,0.113h1.024c0.041-0.145,0.086-0.287,0.131-0.429h-1.364
	C226.064,49.82,225.994,49.928,225.91,50.025L225.91,50.025z M227.064,50.568c0.045,0.039,0.088,0.078,0.129,0.121l0.035-0.121
	H227.064L227.064,50.568z M227.626,49.281c0.051-0.146,0.104-0.288,0.16-0.43h-1.48c0.006,0.145-0.006,0.289-0.035,0.43H227.626
	L227.626,49.281z M227.97,48.422c0.066-0.146,0.139-0.289,0.217-0.43h-2.102c0.067,0.139,0.123,0.283,0.16,0.43H227.97
	L227.97,48.422z M228.449,47.563c0.098-0.146,0.204-0.291,0.319-0.43h-3.399c0.116,0.1,0.229,0.206,0.34,0.32
	c0.033,0.035,0.063,0.072,0.096,0.109H228.449L228.449,47.563z M229.169,46.704c0.057-0.056,0.115-0.108,0.176-0.162
	c-1.521-0.045-3.082-0.007-4.66,0.112c0.029,0.017,0.058,0.033,0.084,0.05H229.169L229.169,46.704z M222.679,51.738
	c0.052-0.106,0.109-0.211,0.172-0.311h-0.285C222.609,51.527,222.648,51.631,222.679,51.738L222.679,51.738z M223.17,50.999
	c0.14-0.158,0.296-0.304,0.468-0.431h-1.715c0.147,0.125,0.281,0.271,0.396,0.431H223.17L223.17,50.999z M223.379,50.141
	c-0.145-0.127-0.271-0.271-0.38-0.43h-2.804c-0.09,0.092-0.173,0.188-0.245,0.288c0.431-0.049,0.852,0.002,1.229,0.142H223.379
	L223.379,50.141z M222.72,49.281c-0.453-0.531-1.289-0.42-1.979,0H222.72L222.72,49.281z M224.423,17.447
	c-0.271-0.094-0.517-0.223-0.736-0.38h-1.365c-0.112,0.16-0.245,0.304-0.394,0.43h2.229
	C224.242,17.474,224.332,17.457,224.423,17.447L224.423,17.447z M223.203,16.637c-0.122-0.134-0.232-0.278-0.33-0.429h-0.16
	c-0.037,0.15-0.086,0.294-0.146,0.429H223.203L223.203,16.637z M221.191,17.926c-0.378,0.139-0.801,0.191-1.238,0.142
	c0.071,0.1,0.154,0.197,0.244,0.288h2.814c0.114-0.158,0.238-0.304,0.377-0.43H221.191L221.191,17.926z M220.742,18.785
	c0.688,0.419,1.524,0.531,1.979,0H220.742L220.742,18.785z M229.207,20.933c-0.148-0.139-0.283-0.282-0.408-0.43h-2.994
	c-0.031,0.037-0.063,0.073-0.096,0.108c-0.109,0.113-0.224,0.22-0.342,0.321L229.207,20.933L229.207,20.933z M228.472,20.073
	c-0.096-0.14-0.184-0.283-0.266-0.429h-1.965c-0.037,0.146-0.091,0.291-0.158,0.429H228.472L228.472,20.073z M227.986,19.214
	c-0.065-0.141-0.127-0.284-0.186-0.43h-1.533c0.029,0.14,0.041,0.284,0.035,0.43H227.986L227.986,19.214z M227.64,18.355
	c-0.051-0.142-0.098-0.285-0.145-0.43h-1.689c0.131,0.128,0.236,0.273,0.314,0.43H227.64L227.64,18.355z M227.365,17.496
	c-0.043-0.142-0.084-0.285-0.127-0.43h-0.217c-0.231,0.19-0.5,0.336-0.795,0.43H227.365L227.365,17.496z M211.494,18.057
	c0.274,0.102,0.551,0.201,0.828,0.299h4.118c-0.055-0.141-0.104-0.284-0.146-0.43h-4.21
	C211.89,17.979,211.695,18.022,211.494,18.057L211.494,18.057z M213.613,18.785c0.475,0.15,0.951,0.293,1.433,0.43h1.839
	c-0.089-0.14-0.171-0.283-0.247-0.43H213.613L213.613,18.785z M216.669,19.644c0.215,0.053,0.43,0.104,0.645,0.154
	c-0.043-0.051-0.085-0.102-0.125-0.154H216.669L216.669,19.644z M216.189,17.496c-0.026-0.142-0.049-0.285-0.063-0.43h-2.23
	c-0.227,0.16-0.463,0.304-0.709,0.43H216.189L216.189,17.496z M216.103,16.637c-0.001-0.142,0.004-0.285,0.017-0.429h-1.24
	c-0.142,0.151-0.287,0.294-0.439,0.429H216.103L216.103,16.637z M216.173,15.778c0.022-0.142,0.055-0.285,0.092-0.429h-0.824
	c-0.064,0.148-0.143,0.292-0.229,0.429H216.173L216.173,15.778z M216.17,14.919c-0.07-0.149-0.157-0.294-0.259-0.43h-0.24
	c-0.017,0.145-0.043,0.288-0.08,0.43H216.17L216.17,14.919z M36.165,19.798c0.216-0.05,0.432-0.102,0.646-0.154h-0.521
	C36.25,19.696,36.208,19.748,36.165,19.798L36.165,19.798z M38.436,19.214c0.48-0.136,0.958-0.279,1.434-0.43h-3.024
	c-0.076,0.147-0.158,0.291-0.247,0.43H38.436L38.436,19.214z M41.158,18.355c0.277-0.097,0.554-0.197,0.828-0.299
	c-0.199-0.034-0.396-0.078-0.589-0.131h-4.209c-0.042,0.145-0.092,0.288-0.147,0.43H41.158L41.158,18.355z M40.293,17.496
	c-0.246-0.126-0.483-0.27-0.71-0.43h-2.229c-0.014,0.144-0.035,0.287-0.063,0.43H40.293L40.293,17.496z M39.042,16.637
	c-0.152-0.135-0.299-0.278-0.44-0.429h-1.241c0.013,0.143,0.018,0.286,0.017,0.429H39.042L39.042,16.637z M38.269,15.778
	c-0.088-0.137-0.165-0.281-0.229-0.429h-0.825c0.037,0.143,0.068,0.286,0.092,0.429H38.269L38.269,15.778z M37.889,14.919
	c-0.038-0.142-0.064-0.285-0.081-0.43h-0.24c-0.102,0.136-0.188,0.28-0.259,0.43H37.889L37.889,14.919z M43.007,49.922
	c-0.178-0.07-0.358-0.143-0.538-0.211h-5.431c0.056,0.141,0.104,0.284,0.147,0.43h4.237C41.934,49.999,42.465,49.925,43.007,49.922
	L43.007,49.922z M41.305,49.281c-0.422-0.149-0.847-0.293-1.274-0.43h-3.434c0.089,0.139,0.172,0.281,0.247,0.43H41.305
	L41.305,49.281z M38.617,48.422c-0.529-0.152-1.063-0.295-1.599-0.43h-1.102c0.132,0.138,0.257,0.281,0.374,0.43H38.617
	L38.617,48.422z M37.291,50.568c0.026,0.143,0.048,0.285,0.063,0.431h2.239c0.231-0.16,0.471-0.304,0.72-0.431H37.291L37.291,50.568
	z M37.376,51.43c0.001,0.141-0.004,0.284-0.017,0.43h1.241l0,0c0.142-0.152,0.289-0.295,0.442-0.43H37.376L37.376,51.43z
	 M37.307,52.288c-0.023,0.142-0.055,0.284-0.092,0.431h0.825c0.064-0.148,0.142-0.294,0.229-0.431H37.307L37.307,52.288z
	 M37.309,53.146c0.07,0.148,0.158,0.293,0.259,0.43h0.24c0.017-0.145,0.043-0.288,0.081-0.43H37.309L37.309,53.146z M17.63,44.127
	c-0.058-0.146-0.119-0.288-0.187-0.43h-0.147L17.223,43.9c0.113,0.063,0.221,0.14,0.32,0.227H17.63L17.63,44.127z M27.569,50.025
	c-0.084-0.1-0.152-0.205-0.21-0.314h-1.364c0.045,0.143,0.088,0.284,0.131,0.43h1.023C27.285,50.091,27.425,50.053,27.569,50.025
	L27.569,50.025z M27.209,49.281c-0.029-0.141-0.041-0.285-0.036-0.43h-1.479c0.057,0.142,0.109,0.283,0.159,0.43H27.209
	L27.209,49.281z M27.234,48.422c0.037-0.146,0.092-0.291,0.16-0.43h-2.101c0.078,0.141,0.148,0.283,0.216,0.43H27.234L27.234,48.422
	z M27.675,47.563c0.031-0.037,0.063-0.074,0.097-0.108c0.108-0.113,0.223-0.222,0.341-0.32h-3.4c0.116,0.14,0.222,0.282,0.321,0.431
	h2.642V47.563z M28.712,46.704c0.028-0.017,0.056-0.033,0.084-0.05c-1.578-0.119-3.139-0.157-4.663-0.112
	c0.061,0.054,0.12,0.106,0.177,0.162H28.712L28.712,46.704z M26.251,50.568l0.035,0.121c0.042-0.043,0.085-0.082,0.13-0.121H26.251
	L26.251,50.568z M30.8,51.738c0.032-0.107,0.07-0.211,0.114-0.311h-0.285C30.692,51.527,30.749,51.632,30.8,51.738L30.8,51.738z
	 M31.16,50.999c0.114-0.16,0.249-0.306,0.396-0.431h-1.715c0.172,0.127,0.328,0.271,0.468,0.431H31.16L31.16,50.999z M32.298,50.141
	c0.38-0.14,0.8-0.19,1.229-0.142c-0.071-0.103-0.154-0.196-0.244-0.288H30.48c-0.11,0.157-0.237,0.303-0.381,0.43H32.298
	L32.298,50.141z M32.738,49.281c-0.689-0.42-1.525-0.531-1.979,0H32.738L32.738,49.281z M9.435,40.428
	c0.048-0.06,0.101-0.115,0.154-0.166H9.483c-0.14,0.08-0.305,0.153-0.501,0.227C9.13,40.456,9.281,40.436,9.435,40.428L9.435,40.428
	z M10.423,39.831l0.034-0.006c0.194-0.199,0.423-0.341,0.669-0.425H10.2c-0.064,0.166-0.138,0.308-0.227,0.431H10.423L10.423,39.831
	z M9.577,27.375c0.186,0.122,0.323,0.263,0.433,0.429h0.477c-0.01-0.009-0.02-0.02-0.029-0.029c-0.307-0.054-0.592-0.188-0.829-0.4
	H9.577L9.577,27.375z M10.22,28.234c0.048,0.131,0.091,0.273,0.134,0.429h0.04c0.206-0.237,0.496-0.392,0.828-0.429H10.22
	L10.22,28.234z M28.112,20.933c-0.117-0.1-0.23-0.207-0.34-0.321c-0.033-0.035-0.064-0.071-0.096-0.108h-2.994
	c-0.125,0.147-0.261,0.291-0.408,0.43L28.112,20.933L28.112,20.933z M27.396,20.073c-0.067-0.139-0.122-0.283-0.158-0.429h-1.965
	c-0.082,0.146-0.17,0.29-0.266,0.429H27.396L27.396,20.073z M27.177,19.214c-0.004-0.146,0.007-0.29,0.035-0.43h-1.533
	c-0.058,0.146-0.12,0.289-0.186,0.43H27.177L27.177,19.214z M27.36,18.355c0.079-0.156,0.184-0.301,0.314-0.43h-1.69
	c-0.046,0.145-0.094,0.288-0.144,0.43H27.36L27.36,18.355z M27.253,17.496c-0.294-0.094-0.563-0.239-0.794-0.43h-0.217
	c-0.042,0.145-0.083,0.288-0.126,0.43H27.253L27.253,17.496z M29.057,17.447c0.092,0.01,0.181,0.027,0.265,0.049h2.23
	c-0.147-0.125-0.28-0.27-0.394-0.43h-1.364C29.572,17.224,29.326,17.353,29.057,17.447L29.057,17.447z M30.091,17.926
	c0.139,0.126,0.263,0.271,0.377,0.43h2.815c0.09-0.091,0.172-0.188,0.244-0.288c-0.438,0.05-0.861-0.002-1.239-0.142H30.091
	L30.091,17.926z M30.76,18.785c0.453,0.531,1.289,0.419,1.979,0H30.76L30.76,18.785z M30.914,16.637
	c-0.061-0.135-0.109-0.279-0.146-0.429h-0.161c-0.097,0.151-0.208,0.295-0.329,0.429H30.914L30.914,16.637z M184.664,48.021h-7.42
	c0.207,0.125,0.409,0.26,0.606,0.399h6.199C184.244,48.275,184.449,48.143,184.664,48.021L184.664,48.021z M178.421,48.852
	c0.175,0.141,0.346,0.283,0.515,0.43h4.229c0.12-0.149,0.25-0.293,0.389-0.43H178.421L178.421,48.852z M179.412,49.711
	c0.151,0.141,0.302,0.284,0.449,0.43h2.756c0.071-0.147,0.151-0.291,0.238-0.43H179.412L179.412,49.711z M180.294,50.568
	c0.142,0.144,0.282,0.287,0.423,0.431h1.589c0.035-0.146,0.078-0.289,0.129-0.431H180.294L180.294,50.568z M181.136,51.43
	c0.141,0.143,0.281,0.286,0.422,0.43h0.629c0.005-0.146,0.019-0.289,0.037-0.43H181.136L181.136,51.43z M181.988,52.288
	c0.075,0.073,0.15,0.146,0.226,0.219c-0.001-0.014-0.002-0.026-0.004-0.038c-0.006-0.063-0.013-0.121-0.017-0.181H181.988
	L181.988,52.288z M197.048,50.714c-0.036-0.049-0.072-0.096-0.109-0.146h-4.008c0.076,0.145,0.15,0.287,0.228,0.431h2.346
	C195.959,50.738,196.501,50.634,197.048,50.714L197.048,50.714z M196.578,50.141c-0.139-0.149-0.281-0.293-0.433-0.43h-3.721
	c0.097,0.143,0.185,0.286,0.268,0.43H196.578L196.578,50.141z M195.618,49.281c-0.216-0.157-0.44-0.301-0.676-0.43h-3.25
	c0.151,0.141,0.286,0.283,0.408,0.43H195.618L195.618,49.281z M193.985,48.422c-0.732-0.26-1.542-0.4-2.416-0.4h-1.044
	c0.238,0.131,0.45,0.265,0.644,0.4H193.985L193.985,48.422z M193.398,51.43c0.086,0.145,0.178,0.287,0.276,0.43h0.971
	c0.089-0.158,0.195-0.303,0.315-0.43H193.398L193.398,51.43z M194.015,52.288c0.107,0.118,0.224,0.235,0.353,0.351
	c0.021-0.121,0.051-0.238,0.088-0.351H194.015L194.015,52.288z M131.523,58.719c-0.296-0.076-0.725-0.263-1.088-0.418h-0.301
	l0.097,0.43h1.244C131.492,58.727,131.507,58.723,131.523,58.719L131.523,58.719z M130.328,59.16l0.032,0.148
	c0.068-0.051,0.14-0.101,0.214-0.148H130.328L130.328,59.16z M142.162,48.021h-9.509l1.496,0.399h7.245
	C141.632,48.27,141.888,48.137,142.162,48.021L142.162,48.021z M135.691,48.852c0.271,0.108,0.484,0.256,0.656,0.43h4.053
	c0.131-0.15,0.273-0.295,0.427-0.43H135.691L135.691,48.852z M136.671,49.711c0.078,0.135,0.146,0.277,0.211,0.43h2.927
	c0.079-0.146,0.165-0.291,0.26-0.43H136.671L136.671,49.711z M137.046,50.568c0.051,0.142,0.101,0.285,0.153,0.431h2.252
	c0.045-0.146,0.097-0.289,0.153-0.431H137.046L137.046,50.568z M137.326,51.43c0.025,0.143,0.036,0.286,0.034,0.43h1.906
	c0.021-0.146,0.043-0.289,0.073-0.43H137.326L137.326,51.43z M137.306,52.288c-0.035,0.147-0.084,0.292-0.147,0.431h2.073
	c-0.006-0.146-0.006-0.287,0-0.431H137.306L137.306,52.288z M136.894,53.146c-0.128,0.162-0.279,0.309-0.452,0.43h2.895
	c-0.029-0.143-0.053-0.286-0.07-0.43H136.894L136.894,53.146z M135.347,54.006c-0.381,0.105-0.771,0.198-1.161,0.157
	c0.052,0.088,0.096,0.181,0.134,0.271h5.265c-0.056-0.142-0.103-0.285-0.144-0.429L135.347,54.006L135.347,54.006z M134.441,54.863
	c0.023,0.142,0.033,0.285,0.029,0.431h4.793c0.203-0.073,0.41-0.142,0.621-0.198c-0.041-0.076-0.08-0.152-0.117-0.23h-5.326V54.863z
	 M134.414,55.725l-0.086,0.43h3.246c0.235-0.154,0.479-0.299,0.729-0.43H134.414L134.414,55.725z M134.242,56.583l-0.087,0.431
	h2.268c0.176-0.148,0.354-0.293,0.538-0.431H134.242L134.242,56.583z M134.035,57.441c-0.063,0.152-0.142,0.297-0.235,0.431h1.688
	c0.147-0.146,0.297-0.29,0.448-0.431H134.035L134.035,57.441z M133.4,58.301c-0.248,0.204-0.543,0.354-0.86,0.43h2.135
	c0.131-0.145,0.262-0.287,0.396-0.43H133.4L133.4,58.301z M132.814,59.16c0.102,0.128,0.176,0.273,0.223,0.43h0.894
	c0.12-0.145,0.242-0.287,0.365-0.43H132.814L132.814,59.16z M133.087,60.02c-0.006,0.146-0.039,0.291-0.099,0.43h0.201
	c0.12-0.118,0.22-0.229,0.271-0.291l0.112-0.139H133.087L133.087,60.02z M151.565,48.021h-5.914c0.239,0.105,0.471,0.24,0.688,0.399
	h4.676C151.191,48.281,151.374,48.146,151.565,48.021L151.565,48.021z M146.844,48.852c0.136,0.135,0.263,0.278,0.381,0.43h2.868
	c0.139-0.146,0.281-0.29,0.43-0.43H146.844L146.844,48.852z M147.521,49.711c0.084,0.139,0.16,0.282,0.229,0.43h1.601
	c0.117-0.146,0.236-0.289,0.357-0.43H147.521L147.521,49.711z M147.916,50.568c0.045,0.143,0.082,0.285,0.108,0.431h0.657
	c0.108-0.144,0.218-0.287,0.328-0.431H147.916L147.916,50.568z M148.08,51.43c0.006,0.12,0.007,0.242,0,0.364
	c0.093-0.121,0.186-0.243,0.276-0.364H148.08L148.08,51.43z M159.169,49.979c0.134-0.1,0.271-0.188,0.408-0.268h-0.519
	C159.099,49.799,159.136,49.889,159.169,49.979L159.169,49.979z M160.63,49.281c0.615-0.153,1.239-0.148,1.836,0h5.521
	c0.122-0.147,0.249-0.291,0.382-0.43h-9.81c0.103,0.137,0.195,0.281,0.281,0.43H160.63L160.63,49.281z M163.525,49.711
	c0.213,0.123,0.42,0.268,0.617,0.43h3.193c0.1-0.146,0.204-0.289,0.311-0.43H163.525L163.525,49.711z M164.597,50.568
	c0.126,0.136,0.246,0.279,0.359,0.431h1.819c0.088-0.146,0.179-0.287,0.271-0.431H164.597L164.597,50.568z M165.234,51.43
	c0.066,0.143,0.104,0.286,0.113,0.43h0.926c0.082-0.146,0.164-0.287,0.247-0.43H165.234L165.234,51.43z M165.298,52.288
	c-0.047,0.155-0.124,0.302-0.226,0.431h0.723c0.079-0.145,0.157-0.287,0.236-0.431H165.298L165.298,52.288z M164.491,53.146
	c-0.258,0.095-0.548,0.105-0.836,0h-1.571c-0.049,0.158-0.068,0.301-0.063,0.43h3.23c0.112-0.124,0.213-0.262,0.297-0.411
	l0.01-0.019H164.491L164.491,53.146z M162.158,54.006c0.164,0.241,0.464,0.385,0.821,0.43h0.547c0.406-0.045,0.834-0.189,1.211-0.43
	H162.158L162.158,54.006z M168.802,48.422c0.151-0.141,0.309-0.271,0.472-0.4h-11.505c0.152,0.125,0.297,0.258,0.433,0.4H168.802
	L168.802,48.422z M62.955,48.021h-1.043c-0.875,0-1.685,0.141-2.416,0.399h2.817C62.504,48.285,62.717,48.15,62.955,48.021
	L62.955,48.021z M58.537,48.852c-0.235,0.131-0.46,0.273-0.676,0.43h3.518c0.122-0.145,0.256-0.288,0.408-0.43H58.537L58.537,48.852
	z M57.334,49.711c-0.15,0.137-0.294,0.279-0.433,0.43h3.885c0.083-0.144,0.172-0.287,0.269-0.43H57.334L57.334,49.711z
	 M56.541,50.568c-0.037,0.05-0.073,0.097-0.109,0.146c0.546-0.08,1.089,0.024,1.544,0.285h2.345
	c0.077-0.144,0.151-0.286,0.229-0.431H56.541L56.541,50.568z M58.52,51.43c0.12,0.127,0.227,0.271,0.315,0.43h0.971
	c0.1-0.143,0.191-0.285,0.276-0.43H58.52L58.52,51.43z M59.024,52.288c0.037,0.11,0.067,0.229,0.088,0.351
	c0.128-0.113,0.245-0.23,0.353-0.351H59.024L59.024,52.288z M76.237,48.021h-7.42c0.214,0.119,0.419,0.254,0.612,0.399h6.2
	C75.827,48.281,76.029,48.146,76.237,48.021L76.237,48.021z M69.928,48.852c0.138,0.137,0.268,0.279,0.389,0.43h4.229
	c0.168-0.146,0.34-0.289,0.514-0.43H69.928L69.928,48.852z M70.624,49.711c0.087,0.139,0.167,0.281,0.238,0.43h2.756
	c0.147-0.146,0.298-0.289,0.449-0.43H70.624L70.624,49.711z M71.044,50.568c0.051,0.142,0.094,0.283,0.13,0.431h1.589
	c0.141-0.144,0.281-0.287,0.422-0.431H71.044L71.044,50.568z M71.256,51.43c0.02,0.141,0.031,0.283,0.037,0.43h0.629
	c0.141-0.144,0.281-0.287,0.421-0.43H71.256L71.256,51.43z M71.286,52.288c-0.003,0.06-0.01,0.118-0.016,0.181
	c-0.001,0.012-0.002,0.024-0.004,0.038c0.075-0.071,0.15-0.146,0.226-0.219H71.286L71.286,52.288z M107.829,48.021h-5.914
	c0.19,0.125,0.374,0.26,0.549,0.399h4.677C107.359,48.264,107.591,48.128,107.829,48.021L107.829,48.021z M102.958,48.852
	c0.146,0.14,0.29,0.283,0.429,0.43h2.87c0.118-0.15,0.245-0.295,0.38-0.43H102.958L102.958,48.852z M103.773,49.711
	c0.121,0.141,0.24,0.284,0.357,0.43h1.604c0.067-0.146,0.145-0.291,0.228-0.43H103.773L103.773,49.711z M104.469,50.568
	c0.11,0.144,0.219,0.287,0.328,0.431h0.661c0.027-0.146,0.063-0.288,0.108-0.431H104.469L104.469,50.568z M105.122,51.43
	c0.095,0.125,0.189,0.25,0.287,0.375c-0.01-0.125-0.01-0.25-0.002-0.375H105.122L105.122,51.43z M120.941,58.73
	c-0.317-0.076-0.612-0.227-0.861-0.431h-1.669c0.134,0.142,0.266,0.285,0.396,0.431H120.941L120.941,58.73z M119.68,57.872
	c-0.094-0.134-0.173-0.276-0.234-0.431h-1.902c0.151,0.141,0.301,0.283,0.448,0.431H119.68L119.68,57.872z M119.323,57.014
	l-0.085-0.431h-2.719c0.184,0.138,0.362,0.28,0.538,0.431H119.323L119.323,57.014z M119.152,56.152l-0.085-0.43h-3.891
	c0.25,0.133,0.493,0.275,0.731,0.43H119.152L119.152,56.152z M119.01,55.294c-0.005-0.146,0.004-0.289,0.029-0.431h-5.326
	c-0.037,0.078-0.076,0.154-0.117,0.23c0.211,0.059,0.417,0.125,0.62,0.199L119.01,55.294L119.01,55.294z M119.16,54.436
	c0.037-0.092,0.083-0.185,0.134-0.271c-0.391,0.041-0.78-0.051-1.162-0.157h-4.092c-0.042,0.144-0.089,0.287-0.145,0.429H119.16
	L119.16,54.436z M117.038,53.576c-0.172-0.121-0.324-0.268-0.453-0.43h-2.372c-0.018,0.144-0.04,0.287-0.069,0.43H117.038
	L117.038,53.576z M116.322,52.719c-0.063-0.139-0.112-0.281-0.147-0.431h-1.926c0.006,0.144,0.006,0.284,0,0.431H116.322
	L116.322,52.719z M116.12,51.857c-0.003-0.143,0.008-0.287,0.034-0.43h-2.015c0.03,0.143,0.055,0.285,0.073,0.43H116.12
	L116.12,51.857z M116.28,50.999c0.054-0.146,0.104-0.289,0.153-0.431h-2.56c0.058,0.142,0.109,0.285,0.154,0.431H116.28
	L116.28,50.999z M116.598,50.141c0.063-0.15,0.132-0.295,0.211-0.43h-3.397c0.095,0.139,0.181,0.282,0.26,0.43H116.598
	L116.598,50.141z M117.133,49.281c0.172-0.176,0.384-0.321,0.656-0.43h-5.136c0.153,0.135,0.294,0.277,0.427,0.43H117.133
	L117.133,49.281z M119.329,48.422l1.498-0.4h-9.51c0.274,0.115,0.53,0.248,0.768,0.4H119.329L119.329,48.422z M119.185,59.16
	c0.124,0.143,0.245,0.285,0.366,0.43h0.894c0.047-0.154,0.121-0.302,0.222-0.43H119.185L119.185,59.16z M119.906,60.02l0.113,0.139
	c0.051,0.063,0.15,0.173,0.271,0.291h0.2c-0.059-0.139-0.091-0.283-0.098-0.43H119.906L119.906,60.02z M123.119,59.309l0.032-0.147
	h-0.246C122.979,59.209,123.051,59.259,123.119,59.309L123.119,59.309z M123.249,58.73l0.097-0.431h-0.301
	c-0.363,0.155-0.791,0.341-1.087,0.417c0.016,0.004,0.031,0.01,0.047,0.014H123.249L123.249,58.73z M94.311,49.979
	c0.033-0.09,0.069-0.18,0.108-0.268h-0.519C94.04,49.79,94.177,49.879,94.311,49.979L94.311,49.979z M94.638,49.281
	c0.085-0.147,0.18-0.293,0.281-0.43h-9.813c0.13,0.139,0.256,0.281,0.379,0.43h5.536c0.593-0.146,1.213-0.151,1.824,0H94.638
	L94.638,49.281z M95.278,48.422c0.136-0.145,0.28-0.275,0.433-0.4H84.206c0.162,0.127,0.317,0.262,0.47,0.4H95.278L95.278,48.422z
	 M85.826,49.711c0.105,0.141,0.21,0.284,0.311,0.43h3.202c0.197-0.162,0.404-0.307,0.619-0.43H85.826L85.826,49.711z M86.426,50.568
	c0.092,0.144,0.183,0.285,0.271,0.431h1.826c0.113-0.151,0.233-0.295,0.359-0.431H86.426L86.426,50.568z M86.956,51.43
	c0.084,0.143,0.167,0.285,0.249,0.43h0.929c0.01-0.144,0.046-0.287,0.113-0.43H86.956L86.956,51.43z M87.446,52.288
	c0.081,0.144,0.16,0.287,0.238,0.431h0.722c-0.1-0.129-0.178-0.273-0.225-0.431H87.446L87.446,52.288z M87.922,53.146l0.01,0.019
	c0.083,0.149,0.183,0.287,0.296,0.411h3.23c0.005-0.129-0.015-0.271-0.063-0.43h-1.571c-0.289,0.105-0.578,0.095-0.835,0H87.922
	L87.922,53.146z M88.742,54.006c0.375,0.239,0.805,0.385,1.209,0.43H90.5c0.357-0.045,0.656-0.188,0.82-0.43H88.742L88.742,54.006z
	 M193.718,19.214c0.376-0.116,0.733-0.259,1.072-0.43h-2.702c-0.123,0.145-0.259,0.288-0.411,0.43H193.718L193.718,19.214z
	 M195.519,18.355c0.193-0.133,0.381-0.276,0.56-0.43h-3.383c-0.085,0.143-0.177,0.287-0.275,0.43H195.519L195.519,18.355z
	 M196.529,17.496c0.037-0.039,0.074-0.079,0.109-0.119c-0.403-0.008-0.794-0.116-1.135-0.311h-2.334
	c-0.076,0.143-0.152,0.286-0.23,0.43H196.529L196.529,17.496z M194.96,16.637c-0.12-0.128-0.228-0.272-0.315-0.429h-0.964
	c-0.098,0.14-0.188,0.284-0.271,0.429H194.96L194.96,16.637z M194.455,15.778c-0.037-0.112-0.066-0.229-0.088-0.351
	c-0.128,0.114-0.243,0.231-0.351,0.351H194.455L194.455,15.778z M183.552,19.214c-0.139-0.136-0.269-0.279-0.389-0.43h-4.229
	c-0.169,0.147-0.34,0.291-0.515,0.43H183.552L183.552,19.214z M182.856,18.355c-0.087-0.139-0.167-0.282-0.238-0.43h-2.756
	c-0.147,0.145-0.298,0.288-0.449,0.43H182.856L182.856,18.355z M182.435,17.496c-0.051-0.14-0.094-0.283-0.129-0.43h-1.589
	c-0.141,0.144-0.281,0.288-0.423,0.43H182.435L182.435,17.496z M182.224,16.637c-0.02-0.141-0.031-0.284-0.037-0.429h-0.629
	c-0.141,0.143-0.281,0.286-0.422,0.429H182.224L182.224,16.637z M182.194,15.778c0.003-0.059,0.01-0.119,0.016-0.179
	c0.002-0.013,0.003-0.026,0.004-0.04c-0.074,0.072-0.149,0.146-0.226,0.219H182.194L182.194,15.778z M150.514,19.214
	c-0.149-0.139-0.292-0.283-0.431-0.43h-2.858c-0.116,0.153-0.241,0.296-0.374,0.43H150.514L150.514,19.214z M149.697,18.355
	c-0.119-0.141-0.237-0.285-0.354-0.43h-1.604c-0.065,0.147-0.142,0.291-0.225,0.43H149.697L149.697,18.355z M149.005,17.496
	c-0.109-0.142-0.217-0.286-0.325-0.43h-0.662c-0.028,0.145-0.064,0.288-0.11,0.43H149.005L149.005,17.496z M148.357,16.637
	c-0.094-0.126-0.188-0.251-0.285-0.376c0.009,0.125,0.009,0.25,0.001,0.376H148.357L148.357,16.637z M132.539,9.335
	c0.317,0.076,0.612,0.226,0.861,0.43h1.669c-0.134-0.142-0.266-0.285-0.396-0.43H132.539L132.539,9.335z M133.8,10.194
	c0.094,0.133,0.172,0.277,0.234,0.43h1.901c-0.151-0.14-0.301-0.284-0.448-0.43H133.8L133.8,10.194z M134.156,11.053l0.087,0.43
	h2.719c-0.184-0.138-0.361-0.281-0.537-0.43H134.156L134.156,11.053z M134.328,11.912l0.086,0.43h3.891
	c-0.25-0.131-0.494-0.275-0.729-0.43H134.328L134.328,11.912z M134.47,12.771c0.004,0.145-0.006,0.289-0.029,0.43h5.327
	c0.037-0.078,0.075-0.155,0.116-0.231c-0.211-0.057-0.418-0.124-0.621-0.199H134.47L134.47,12.771z M134.32,13.63
	c-0.037,0.093-0.082,0.184-0.134,0.272c0.391-0.042,0.78,0.051,1.161,0.158h4.094c0.041-0.145,0.09-0.288,0.144-0.43H134.32
	L134.32,13.63z M136.441,14.489c0.174,0.121,0.325,0.267,0.453,0.43h2.373c0.018-0.144,0.04-0.287,0.068-0.43H136.441
	L136.441,14.489z M137.158,15.349c0.063,0.137,0.112,0.281,0.147,0.429h1.926c-0.006-0.143-0.006-0.286,0-0.429H137.158
	L137.158,15.349z M137.361,16.208c0.002,0.142-0.009,0.286-0.034,0.429h2.014c-0.03-0.142-0.055-0.285-0.072-0.429H137.361
	L137.361,16.208z M137.2,17.066c-0.054,0.146-0.104,0.289-0.153,0.43h2.559c-0.059-0.141-0.108-0.284-0.153-0.43H137.2L137.2,17.066
	z M136.882,17.926c-0.063,0.15-0.133,0.294-0.211,0.43h3.396c-0.094-0.139-0.182-0.283-0.261-0.43H136.882L136.882,17.926z
	 M136.347,18.785c-0.172,0.175-0.385,0.321-0.656,0.43h5.14c-0.154-0.135-0.297-0.279-0.431-0.43H136.347L136.347,18.785z
	 M134.294,8.906c-0.123-0.143-0.245-0.286-0.365-0.43h-0.9c-0.045,0.155-0.119,0.301-0.22,0.43H134.294L134.294,8.906z
	 M133.574,8.046l-0.113-0.138c-0.051-0.063-0.149-0.172-0.271-0.291h-0.203c0.058,0.138,0.089,0.283,0.096,0.429H133.574
	L133.574,8.046z M130.361,8.757l-0.032,0.149h0.245C130.5,8.857,130.429,8.807,130.361,8.757L130.361,8.757z M130.231,9.335
	l-0.097,0.43h0.301c0.363-0.155,0.791-0.34,1.087-0.417c-0.016-0.003-0.03-0.008-0.048-0.012L130.231,9.335L130.231,9.335z
	 M159.169,18.088c-0.033,0.09-0.07,0.18-0.107,0.268h0.517C159.44,18.275,159.303,18.187,159.169,18.088L159.169,18.088z
	 M158.844,18.785c-0.085,0.148-0.179,0.291-0.28,0.43h9.81c-0.131-0.139-0.256-0.283-0.379-0.43h-5.527
	c-0.597,0.149-1.222,0.155-1.838,0H158.844L158.844,18.785z M167.654,18.355c-0.105-0.141-0.21-0.285-0.312-0.43h-3.201
	c-0.196,0.163-0.403,0.306-0.617,0.43H167.654L167.654,18.355z M167.054,17.496c-0.094-0.142-0.184-0.286-0.271-0.43h-1.826
	c-0.114,0.152-0.234,0.295-0.359,0.43H167.054L167.054,17.496z M166.524,16.637c-0.084-0.143-0.167-0.287-0.249-0.429h-0.934
	c-0.011,0.146-0.047,0.292-0.109,0.429H166.524L166.524,16.637z M166.033,15.778c-0.08-0.144-0.158-0.287-0.237-0.429h-0.709
	c0.099,0.13,0.17,0.276,0.212,0.429H166.033L166.033,15.778z M165.558,14.919l-0.01-0.019c-0.084-0.15-0.185-0.287-0.297-0.411
	h-3.23c-0.006,0.129,0.015,0.272,0.063,0.43h1.578c0.271-0.095,0.564-0.093,0.833,0H165.558L165.558,14.919z M164.738,14.06
	c-0.377-0.239-0.807-0.383-1.211-0.43h-0.545c-0.358,0.046-0.657,0.188-0.823,0.43H164.738L164.738,14.06z M75.058,19.214
	c-0.174-0.139-0.346-0.283-0.514-0.43h-4.228c-0.121,0.15-0.25,0.293-0.389,0.43H75.058L75.058,19.214z M74.067,18.355
	c-0.15-0.142-0.301-0.285-0.449-0.43h-2.756c-0.071,0.147-0.151,0.291-0.238,0.43H74.067L74.067,18.355z M73.185,17.496
	c-0.142-0.142-0.282-0.286-0.423-0.43h-1.588c-0.036,0.146-0.079,0.29-0.129,0.43H73.185L73.185,17.496z M72.343,16.637
	c-0.14-0.144-0.281-0.287-0.421-0.429h-0.629c-0.005,0.145-0.018,0.288-0.037,0.429H72.343L72.343,16.637z M71.491,15.778
	c-0.074-0.073-0.149-0.146-0.225-0.219c0.001,0.013,0.002,0.026,0.004,0.04c0.006,0.06,0.011,0.12,0.016,0.179H71.491L71.491,15.778
	z M56.841,17.377c0.036,0.04,0.073,0.08,0.11,0.119h3.59c-0.078-0.144-0.154-0.287-0.23-0.43h-2.334
	C57.635,17.261,57.245,17.369,56.841,17.377L56.841,17.377z M57.402,17.926c0.179,0.153,0.364,0.296,0.56,0.43h3.099
	c-0.1-0.143-0.19-0.287-0.275-0.43H57.402L57.402,17.926z M58.689,18.785c0.338,0.17,0.696,0.314,1.072,0.43h2.041
	c-0.151-0.142-0.288-0.285-0.411-0.43H58.689L58.689,18.785z M60.071,16.637c-0.085-0.146-0.175-0.289-0.272-0.429h-0.963
	c-0.089,0.157-0.195,0.301-0.315,0.429H60.071L60.071,16.637z M59.462,15.778c-0.106-0.12-0.223-0.237-0.351-0.351
	c-0.021,0.122-0.051,0.239-0.088,0.351H59.462L59.462,15.778z M121.957,9.347c0.296,0.078,0.725,0.262,1.087,0.417h0.301
	l-0.097-0.43h-1.244C121.988,9.339,121.973,9.344,121.957,9.347L121.957,9.347z M123.152,8.906l-0.032-0.149
	c-0.068,0.051-0.14,0.101-0.212,0.149H123.152L123.152,8.906z M117.826,19.214c-0.26-0.104-0.496-0.237-0.699-0.43h-4.048
	c-0.133,0.151-0.274,0.294-0.429,0.43H117.826L117.826,19.214z M116.791,18.355c-0.063-0.11-0.121-0.233-0.172-0.37l-0.022-0.06
	h-2.924c-0.079,0.147-0.166,0.291-0.261,0.43H116.791L116.791,18.355z M116.432,17.496c-0.056-0.145-0.109-0.288-0.155-0.43h-2.248
	c-0.045,0.146-0.096,0.289-0.153,0.43H116.432L116.432,17.496z M116.164,16.637c-0.028-0.142-0.044-0.285-0.045-0.429h-1.905
	c-0.02,0.144-0.042,0.287-0.072,0.429H116.164L116.164,16.637z M116.164,15.778c0.03-0.14,0.079-0.282,0.146-0.429h-2.063
	c0.005,0.144,0.006,0.287,0,0.429H116.164L116.164,15.778z M116.57,14.919c0.14-0.181,0.293-0.319,0.461-0.43h-2.888
	c0.029,0.143,0.052,0.286,0.07,0.43H116.57L116.57,14.919z M118.144,14.06c0.12-0.031,0.244-0.063,0.369-0.096
	c0.26-0.069,0.524-0.089,0.781-0.061c-0.051-0.088-0.097-0.179-0.133-0.272h-5.266c0.055,0.142,0.103,0.285,0.144,0.43
	L118.144,14.06L118.144,14.06z M119.039,13.201c-0.024-0.141-0.034-0.285-0.029-0.43h-4.793c-0.203,0.075-0.41,0.142-0.621,0.199
	c0.041,0.076,0.08,0.153,0.117,0.231H119.039L119.039,13.201z M119.066,12.342l0.085-0.43h-3.246
	c-0.236,0.154-0.479,0.298-0.729,0.43H119.066L119.066,12.342z M119.238,11.483l0.085-0.43h-2.266
	c-0.176,0.148-0.354,0.292-0.538,0.43H119.238L119.238,11.483z M119.446,10.624c0.063-0.153,0.142-0.297,0.234-0.43h-1.688
	c-0.147,0.146-0.297,0.29-0.448,0.43H119.446L119.446,10.624z M120.079,9.765c0.249-0.204,0.543-0.354,0.861-0.43h-2.135
	c-0.13,0.145-0.262,0.288-0.396,0.43H120.079L120.079,9.765z M120.666,8.906c-0.102-0.128-0.175-0.275-0.222-0.43h-0.894
	c-0.121,0.144-0.242,0.287-0.366,0.43H120.666L120.666,8.906z M120.392,8.046c0.007-0.146,0.039-0.291,0.098-0.429h-0.2
	c-0.121,0.119-0.22,0.229-0.271,0.291l-0.113,0.138H120.392L120.392,8.046z M106.628,19.214c-0.133-0.133-0.258-0.277-0.375-0.43
	h-2.856c-0.139,0.147-0.282,0.291-0.431,0.43H106.628L106.628,19.214z M105.961,18.355c-0.083-0.139-0.159-0.283-0.227-0.43h-1.598
	c-0.117,0.145-0.235,0.288-0.356,0.43H105.961L105.961,18.355z M105.569,17.496c-0.046-0.142-0.083-0.285-0.11-0.43H104.8
	c-0.108,0.144-0.216,0.288-0.326,0.43H105.569L105.569,17.496z M105.402,16.637c-0.008-0.122-0.008-0.244-0.001-0.365
	c-0.093,0.121-0.186,0.243-0.276,0.365H105.402L105.402,16.637z M94.311,18.088c-0.134,0.099-0.271,0.188-0.409,0.268h0.517
	C94.38,18.268,94.344,18.178,94.311,18.088L94.311,18.088z M92.851,18.785c-0.617,0.154-1.241,0.148-1.838,0h-5.524
	c-0.122,0.146-0.25,0.29-0.381,0.43h9.809c-0.103-0.139-0.195-0.282-0.28-0.43H92.851L92.851,18.785z M89.955,18.355
	c-0.214-0.124-0.42-0.267-0.617-0.43h-3.195c-0.101,0.145-0.205,0.288-0.312,0.43H89.955L89.955,18.355z M88.882,17.496
	c-0.125-0.134-0.245-0.278-0.359-0.43h-1.821c-0.089,0.145-0.179,0.288-0.271,0.43H88.882L88.882,17.496z M88.246,16.637
	c-0.067-0.143-0.104-0.288-0.113-0.429h-0.927c-0.081,0.143-0.164,0.287-0.247,0.429H88.246L88.246,16.637z M88.182,15.778
	c0.047-0.156,0.124-0.301,0.224-0.429h-0.721c-0.079,0.143-0.158,0.286-0.238,0.429H88.182L88.182,15.778z M88.989,14.919
	c0.257-0.095,0.547-0.106,0.836,0h1.571c0.048-0.158,0.067-0.301,0.063-0.43h-3.23c-0.113,0.124-0.213,0.261-0.296,0.411
	l-0.01,0.019H88.989L88.989,14.919z M91.321,14.06c-0.165-0.242-0.464-0.384-0.822-0.43h-0.545c-0.405,0.046-0.835,0.19-1.211,0.43
	H91.321L91.321,14.06z"/>
</svg>
